<svg height="254" version="1.1" width="134" xmlns="http://www.w3.org/2000/svg" viewBox="0 0 134 254" preserveAspectRatio="xMidYMax"><desc>Created with Raphaël 2.1.0</desc><defs/><path style="stroke-opacity: 1;" fill="#ebc014" stroke="#000000" d="M66.384,4.445C33.363,4.885000000000001,27.087000000000003,31.886,27.087000000000003,59.235C27.279000000000003,81.662,6.277000000000005,93.291,6.277000000000005,114.89699999999999C6.277000000000005,114.89699999999999,3.7110000000000047,138.718,6.277000000000005,149.983C11.489000000000004,172.862,19.805000000000007,201.203,32.153000000000006,218.94400000000002C24.883000000000006,222.86900000000003,20.579000000000008,227.73100000000002,20.579000000000008,232.305C20.579000000000008,242.203,40.69000000000001,249.561,67.50200000000001,249.561S114.424,242.204,114.424,232.305C114.424,227.483,109.649,222.33,101.64800000000001,218.305C114.47000000000001,200.679,123.92200000000001,173.02,128.642,149.983C130.974,138.608,126.49,114.897,126.49,114.897C124.797,87.351,105.613,79.19200000000001,105.68199999999999,59.23500000000001C105.681,31.886,99.399,4.005,66.384,4.445L66.384,4.445Z" stroke-width="0" stroke-opacity="1" transform="matrix(1,0,0,1,0,0)"/><path style="stroke-opacity: 1;" fill="#e56a1a" stroke="#000000" d="M66.365,4.354C33.343999999999994,4.7940000000000005,27.067999999999998,31.794,27.067999999999998,59.141999999999996C27.145999999999997,68.211,23.758999999999997,75.51299999999999,19.695999999999998,82.42399999999999C31.808999999999997,91.946,48.626999999999995,95.708,67.21199999999999,95.708C87.21499999999999,95.708,101.231,92.904,114.58099999999999,82.567C110.25399999999999,75.689,105.62899999999999,69.00099999999999,105.66299999999998,59.141999999999996C105.662,31.794,99.38,3.915,66.365,4.354L66.365,4.354Z" stroke-width="0" stroke-opacity="1" transform="matrix(1,0,0,1,0,0)"/><path style="stroke-opacity: 1;" fill="#e56a1a" stroke="#000000" d="M6.633,151.474C11.863,174.083,20.071,201.581,32.154,218.94099999999997C28.835000000000004,220.73399999999998,26.145000000000003,222.71999999999997,24.189000000000004,224.78699999999998C33.501000000000005,232.13099999999997,46.888000000000005,236.378,66.113,236.378C86.474,236.378,100.279,231.67,109.63,223.61899999999997C107.556,221.72799999999998,104.866,219.91599999999997,101.649,218.29699999999997C114.194,201.05099999999996,123.503,174.22299999999996,128.32,151.49399999999997C123.485,174.275,12.702,173.67,6.633,151.474L6.633,151.474Z" stroke-width="0" stroke-opacity="1" transform="matrix(1,0,0,1,0,0)"/><path style="stroke-opacity: 1;" fill="#fde5d6" stroke="#000000" d="M18.461,166.35C15.660999999999998,166.35,13.064999999999998,167.055,10.869,168.24599999999998C12.922,175.62099999999998,15.263,183.10699999999997,17.939999999999998,190.29799999999997C18.104999999999997,190.30299999999997,18.294999999999998,190.31899999999996,18.461,190.31899999999996C26.27,190.31899999999996,28.730999999999998,180.80899999999997,28.730999999999998,174.19199999999995C28.731,167.576,26.27,166.35,18.461,166.35Z" stroke-width="0" stroke-opacity="1" transform="matrix(1,0,0,1,0,0)"/><path style="stroke-opacity: 1;" fill="#fde5d6" stroke="#000000" d="M116.709,166.35C119.509,166.35,122.105,167.055,124.301,168.24599999999998C122.248,175.62099999999998,119.878,183.10699999999997,117.2,190.29799999999997C117.035,190.30299999999997,116.875,190.31899999999996,116.709,190.31899999999996C108.90100000000001,190.31899999999996,106.43900000000001,180.80899999999997,106.43900000000001,174.19199999999995C106.44,167.576,108.902,166.35,116.709,166.35Z" stroke-width="0" stroke-opacity="1" transform="matrix(1,0,0,1,0,0)"/><path style="stroke-opacity: 1;" fill="#faf3ee" stroke="#000000" d="M15.181,89.893C10.520999999999999,97.467,6.2379999999999995,105.167,6.2379999999999995,114.889C6.2379999999999995,114.889,3.6719999999999997,138.71699999999998,6.2379999999999995,149.983C7.848,157.053,9.769,164.639,12,172.27800000000002C12.897,172.31400000000002,13.808,172.33900000000003,14.745000000000001,172.33900000000003C39.928,172.15100000000004,30.643,141.70300000000003,31.013,117.51000000000002C31.012,105.93,24.818,90.324,15.181,89.893Z" stroke-width="0" stroke-opacity="1" transform="matrix(1,0,0,1,0,0)"/><path style="stroke-opacity: 1;" fill="#faf3ee" stroke="#000000" d="M118.875,90.01C123.535,97.584,128.894,105.16600000000001,128.894,114.888C128.894,114.888,131.46,138.716,128.894,149.982C127.283,157.052,125.363,164.638,123.132,172.277C122.235,172.313,121.324,172.338,120.387,172.338C95.20400000000001,172.15,104.49,141.702,104.119,117.50899999999999C104.119,105.93,109.237,90.442,118.875,90.01Z" stroke-width="0" stroke-opacity="1" transform="matrix(1,0,0,1,0,0)"/><path style="stroke-opacity: 1;" fill="#e56a1a" stroke="#000000" d="M66.475,93.092C63.48499999999999,93.092,60.971,94.748,60.00399999999999,97.07C56.43699999999999,98.356,52.16299999999999,100.26299999999999,47.74799999999999,102.639C37.31699999999999,108.253,31.47999999999999,116.112,31.47999999999999,116.112S42.55699999999999,114.884,52.987999999999985,109.26899999999999C56.39599999999999,107.43599999999999,59.457999999999984,105.55099999999999,61.99899999999998,103.78899999999999C63.20399999999998,104.68599999999999,64.76299999999998,105.22099999999999,66.47499999999998,105.22099999999999H69.7C71.474,105.22099999999999,73.096,104.63999999999999,74.316,103.68299999999999C76.509,105.18799999999999,78.985,106.74499999999999,81.673,108.279C91.997,114.17399999999999,102.49600000000001,115.547,102.49600000000001,115.547S96.27000000000001,107.34899999999999,85.94600000000001,101.455C82.36600000000001,99.41199999999999,78.909,97.703,75.86700000000002,96.399C74.72700000000002,94.432,72.39600000000002,93.092,69.69900000000001,93.092H66.475Z" stroke-width="0" stroke-opacity="1" transform="matrix(1,0,0,1,0,0)"/><path style="stroke-opacity: 1;" fill="#fde5d6" stroke="#000000" d="M94.527,59.967C94.527,78.822,76.973,91.601,66.678,91.343C56.819,91.097,38.83,78.823,38.83,59.967S51.298,25.826,66.679,25.826C82.058,25.827,94.527,41.112,94.527,59.967Z" stroke-width="0" stroke-opacity="1" transform="matrix(1,0,0,1,0,0)"/><path style="stroke-opacity: 1;" fill="#fbccab" stroke="#000000" d="M57.205,67.063C57.205,71.007,53.911,74.205,49.848,74.205S42.49,71.008,42.49,67.063C42.49,63.119,45.785000000000004,59.922000000000004,49.848,59.922000000000004S57.205,63.119,57.205,67.063Z" stroke-width="0" stroke-opacity="1" ry="11.785714" rx="12.142858" cy="251.59448" cx="152.85715" transform="matrix(1,0,0,1,0,0)"/><path style="stroke-opacity: 1;" fill="#fbccab" stroke="#000000" d="M90.839,65.22C90.839,69.164,87.545,72.362,83.482,72.362C79.418,72.362,76.124,69.16499999999999,76.124,65.22S79.41799999999999,58.077999999999996,83.482,58.077999999999996C87.545,58.079,90.839,61.276,90.839,65.22Z" stroke-width="0" stroke-opacity="1" ry="11.785714" rx="12.142858" cy="251.59448" cx="152.85715" transform="matrix(1,0,0,1,0,0)"/><path style="stroke-opacity: 1;" fill="#502d17" stroke="#000000" d="M50.877,45.573C55.806000000000004,42.745,60.585,47.591,59.116,47.053C55.913,45.885999999999996,53.083,45.936,49.039,47.098C48.671,44.654,51.686,41.529,50.877,45.573Z" stroke-width="0" stroke-opacity="1" transform="matrix(1,0,0,1,0,0)"/><path style="stroke-opacity: 1;" fill="#502d17" stroke="#000000" d="M83.161,45.493C83.96600000000001,45.701,83.805,46.893,83.03,46.564C79.827,45.396,76.997,45.447,72.953,46.608C77.47,42.782,81.989,45.083,83.161,45.493Z" stroke-width="0" stroke-opacity="1" transform="matrix(1,0,0,1,0,0)"/><path style="stroke-opacity: 1;" fill="#3b0208" stroke="#000000" d="M66.672,25.832C52.51,25.832,40.830999999999996,38.792,39.068,55.564C45.803,52.754,53.596,46.105000000000004,58.233,41.353C61.558,37.946,65.573,33.645,68.24799999999999,28.835C70.92399999999999,33.644,74.93799999999999,37.945,78.264,41.353C82.146,45.332,88.24,50.639,94.074,53.911C91.739,37.949,80.364,25.832,66.672,25.832Z" stroke-width="0" stroke-opacity="1" transform="matrix(1,0,0,1,0,0)"/><path style="stroke-opacity: 1;" fill="#29190f" stroke="#000000" d="M60.585,51.2529C61.1319,51.5068,61.079100000000004,52.573699999999995,60.5108,52.33C57.0938,51.4867,54.456100000000006,51.7113,50.450300000000006,52.9018C51.6826,49.7563,60.0703,50.1655,60.585,51.2529Z" stroke-width="0" stroke-opacity="1" transform="matrix(1,0,0,1,0,0)"/><path style="stroke-opacity: 1;" fill="#29190f" stroke="#000000" d="M71.734,51.151C76.929,48.85,81.457,51.829,81.59899999999999,53.259C78.535,51.765,75.71399999999998,51.522,71.57199999999999,52.258C71.013,52.149,71.435,51.113,71.734,51.151C72.033,51.188,71.734,51.151,71.734,51.151Z" stroke-width="0" stroke-opacity="1" transform="matrix(1,0,0,1,0,0)"/><path style="stroke-opacity: 1;" fill="#29190f" stroke="#000000" d="M60.2319,53.585C60.2319,52.4317,58.393,51.5,56.1284,51.5C53.8628,51.5,52.0239,52.4316,52.0239,53.585C52.0239,54.7373,53.8628,55.6802,56.1284,55.6802C58.3931,55.6802,60.2319,54.7373,60.2319,53.585Z" stroke-width="0" stroke-opacity="1" transform="matrix(1,0,0,1,0,0)"/><path style="stroke-opacity: 1;" fill="#29190f" stroke="#000000" d="M80.232,53.585C80.232,52.432,78.393,51.5,76.128,51.5C73.862,51.5,72.024,52.432,72.024,53.585C72.024,54.737,73.863,55.68,76.128,55.68C78.393,55.68,80.232,54.737,80.232,53.585Z" stroke-width="0" stroke-opacity="1" transform="matrix(1,0,0,1,0,0)"/><path style="stroke-opacity: 1;" fill="#d45714" stroke="#000000" d="M69.2803,63.3301C67.6284,64.4126,65.0176,64.3994,63.436499999999995,63.2989C62.45309999999999,62.6173,62.090799999999994,61.4146,62.3589,60.5411C61.5498,61.6627,61.812,63.0504,63.1685,63.9937C64.9024,65.1978,67.7627,65.2193,69.5572,64.0411C71.0098,63.0899,71.32039999999999,61.6441,70.47179999999999,60.4913C70.7412,61.3936,70.3389,62.6367,69.2803,63.3301Z" stroke-width="0" stroke-opacity="1" transform="matrix(1,0,0,1,0,0)"/><path style="stroke-opacity: 1;" fill="#d45714" stroke="#000000" d="M52.327,66.719C53.239999999999995,71.759,59.482,77.11399999999999,66.419,77.169C73.518,77.096,80.126,71.676,80.511,66.719C79.699,70.04199999999999,71.631,67.943,66.68299999999999,69.52C61.194,67.972,53.14,70.042,52.327,66.719Z" stroke-width="0" stroke-opacity="1" transform="matrix(1,0,0,1,0,0)"/><path style="stroke-opacity: 1;" fill="#2c7b33" stroke="#000000" d="M67.2139,174.9185C73.1045,180.5015,81.458,181.5459,89.5752,177.835C92.21969999999999,176.626,94.83789999999999,174.91410000000002,97.3359,172.69050000000001C88.72749999999999,165.88240000000002,81.46969999999999,165.0054,75.8896,166.79690000000002C81.33,160.1099,83.7792,150.35260000000002,81.8759,139.84380000000002C69.9042,146.9336,65.412,155.3487,64.6318,162.70270000000002C61.7656,155.8848,55.041,149.11920000000003,41.537099999999995,145.77640000000002C42.82619999999999,157.16600000000003,48.66799999999999,166.28230000000002,56.62689999999999,170.86720000000003C54.15619999999999,170.76560000000003,51.54679999999999,171.18460000000002,48.92379999999999,172.36480000000003C44.82419999999999,174.20710000000003,40.691399999999994,177.90530000000004,36.99999999999999,184.36040000000003C44.394499999999994,187.01860000000002,51.345699999999994,186.81250000000003,56.76369999999999,184.28620000000004C60.376999999999995,182.60070000000005,63.31159999999999,179.88000000000002,65.24029999999999,176.28720000000004V176.28820000000005C63.40729999999999,181.32340000000005,73.5294,192.14320000000004,76.74709999999999,190.62760000000006C76.7901,190.60710000000006,76.835,190.58220000000006,76.87599999999999,190.55780000000007C78.21679999999999,189.73160000000007,78.544,188.95720000000006,78.25979999999998,188.33030000000008C77.89459999999998,187.52560000000008,76.51369999999999,186.96700000000007,74.96879999999999,186.86200000000008C72.2227,186.6758,66.6934,178.4941,67.2139,174.9185L67.2139,174.9185Z" stroke-width="0" stroke-opacity="1" transform="matrix(1,0,0,1,0,0)"/><path style="stroke-opacity: 1;" fill="#acd195" stroke="#000000" d="M39.4492,183.4419C47.384699999999995,187.4917,59.583,184.1011,64.3428,174.4107L64.3399,174.40869999999998C58.4747,179.39309999999998,52.7198,179.7402,50.0489,178.021C54.4483,177.4785,57.6651,176.814,62.0743,172.39309999999998C58.158300000000004,170.67139999999998,51.539100000000005,170.82279999999997,45.1495,176.21049999999997C42.7949,178.1938,40.7734,180.6147,39.4492,183.4419Z" stroke-width="0" stroke-opacity="1" transform="matrix(1,0,0,1,0,0)"/><path style="stroke-opacity: 1;" fill="#acd195" stroke="#000000" d="M68.3242,170.4785C73.5244,172.71869999999998,78.99610000000001,173.13819999999998,82.8818,172.1152C81.2148,174.46089999999998,76.25,176.1059,69.6308,173.8842L69.6318,173.8862C76.90429999999999,180.4438,88.3154,179.1919,93.6347,173.1093C90.15419999999999,169.8525,85.3925,168.2284,80.8808,167.78019999999998C75.4385,167.2388,70.3555,168.4077,68.3242,170.4785Z" stroke-width="0" stroke-opacity="1" transform="matrix(1,0,0,1,0,0)"/><path style="stroke-opacity: 1;" fill="#e9afaf" stroke="#000000" d="M46.668,176.8901C47.4414,177.60739999999998,48.1797,178.13129999999998,48.8789,178.4902C53.1191,180.67669999999998,55.8828,176.8603,56.1299,173.9785C58.7764,174.7773,60.6875,173.6914,61.7695,172.0508C63.125,169.9956,63.1757,167.0752,61.7383,165.8965C63.655300000000004,163.03130000000002,63.082100000000004,158.2153,59.9737,156.1602C58.045,154.8848,55.1426,154.6724,51.254000000000005,156.6465C47.6895,154.8955,44.555800000000005,156.3023,42.8556,158.5532C41.4337,160.4336,41.0109,162.9023,42.1691,164.61520000000002C38.6545,169.6347,39.6388,173.65910000000002,42.2873,175.6123C43.4922,176.5,45.041,176.96,46.668,176.8901Z" stroke-width="0" stroke-opacity="1" transform="matrix(1,0,0,1,0,0)"/><path style="stroke-opacity: 1;" fill="#d45f5f" stroke="#000000" d="M46.4492,176.4219C47.2226,177.1397,47.9629,177.6616,48.6611,178.02249999999998C52.9004,180.20709999999997,55.664,176.39069999999998,55.9111,173.50879999999998C58.5576,174.30859999999998,60.469699999999996,173.22169999999997,61.5507,171.5811C62.9062,169.52689999999998,62.9569,166.606,61.518499999999996,165.4263C63.436499999999995,162.5625,62.8632,157.7466,59.754799999999996,155.6914C57.827999999999996,154.415,54.924699999999994,154.20309999999998,51.0351,156.1772C47.4706,154.4262,44.3369,155.832,42.6367,158.0834C41.2148,159.96380000000002,40.791999999999994,162.4335,41.9492,164.1474C38.436499999999995,169.165,39.4199,173.1884,42.0683,175.14350000000002C43.2725,176.0303,44.8223,176.4897,46.4492,176.4219ZM54.3281,160.1299C54.6582,160.188,55.1826,160.26999999999998,55.583,160.4756C55.599599999999995,160.4863,55.6152,160.4844,55.6309,160.49509999999998C57.8497,161.46479999999997,58.472699999999996,162.9311,58.6905,164.16699999999997C60.7843,158.15769999999998,52.3116,157.95309999999998,52.3116,157.95309999999998C53.0216,155.40329999999997,56.504,155.72849999999997,59.1573,157.86719999999997C61.0401,159.38819999999996,61.9669,163.31539999999995,59.2569,165.49119999999996C61.1524,169.70509999999996,56.7491,172.29199999999997,54.8223,171.35059999999996C58.137699999999995,169.26659999999995,59.412099999999995,165.88869999999997,54.458,161.60549999999995L54.450199999999995,161.59959999999995C50.7324,161.53269999999995,47.474599999999995,163.68159999999995,49.06739999999999,167.06099999999995C49.85059999999999,168.69819999999996,51.95799999999999,169.62789999999995,53.51859999999999,168.44429999999994C54.767599999999995,167.48919999999995,54.91609999999999,165.31729999999993,53.213899999999995,164.74309999999994C53.798899999999996,165.86859999999993,52.934599999999996,167.24409999999995,51.669999999999995,167.21089999999995C50.616299999999995,167.17969999999994,49.59969999999999,165.94919999999996,50.1427,164.90619999999996C50.1398,164.89159999999995,50.1466,164.88419999999996,50.152499999999996,164.87499999999994C50.2082,164.74169999999995,50.293099999999995,164.60349999999994,50.388799999999996,164.48539999999994C52.42979999999999,161.53419999999994,56.6134,164.37649999999994,55.797999999999995,167.46679999999995C54.92979999999999,170.72069999999994,50.797,171.17969999999994,48.67009999999999,168.93559999999994C46.36149999999999,166.48979999999995,47.289199999999994,162.67289999999994,49.990399999999994,160.95269999999994C51.2666,160.1377,52.8359,159.8394,54.3281,160.1299ZM44.1367,167.1338C42.403299999999994,164.9805,41.0498,157.9951,49.550799999999995,157.92340000000002C44.9903,161.2735,44.878899999999994,165.26670000000001,44.91309999999999,167.0215C45.604499999999994,171.1934,49.224599999999995,174.0986,52.90039999999999,171.9219C51.61329999999999,175.9698,46.26369999999999,175.5459,45.32719999999999,174.89069999999998C44.1201,174.0449,42.7129,170.7129,44.1367,167.1338Z" stroke-width="0" stroke-opacity="1" transform="matrix(1,0,0,1,0,0)"/><path style="stroke-opacity: 1;" fill="#d45f5f" stroke="#000000" d="M88.7725,138.4873C88.1485,136.4702,87.39259999999999,134.8252,86.54199999999999,133.5029C81.3838,125.47800000000001,72.78029999999998,129.32520000000002,69.4707,134.0693C65.6865,130.039,61.28999999999999,130.0088,57.77539999999999,131.7695C53.37499999999999,133.9716,50.36129999999999,138.9795,51.67479999999999,142.4599C45.49019999999999,145.5053,41.66699999999999,154.4189,44.99409999999999,161.0864C47.05859999999999,165.2231,51.87399999999999,168.4946,60.583899999999986,168.9648C65.00679999999998,175.5615,71.83979999999998,176.2587,77.03799999999998,174.061C81.37879999999998,172.22560000000001,84.58099999999999,168.3725,84.28999999999998,164.2461C95.39349999999997,159.06840000000003,97.71479999999998,151.11520000000002,95.07909999999998,145.08200000000002C93.8809,142.3398,91.6582,139.9951,88.7725,138.4873Z" stroke-width="0" stroke-opacity="1" transform="matrix(1,0,0,1,0,0)"/><path style="stroke-opacity: 1;" fill="#fad4d5" stroke="#000000" d="M57.9561,156.9507C57.4434,156.5191,56.6163,155.85350000000003,56.1299,155.09720000000002C56.1133,155.0601,56.083999999999996,155.05030000000002,56.0664,155.01270000000002C53.193400000000004,151.11720000000003,53.582,147.95360000000002,54.4394,145.59720000000002C44.8037,153.9112,59.2753,162.7373,59.2753,162.7373C55.4941,166.4453,49.787,162.3965,47.3329,156.03910000000002C45.5917,151.5235,47.914,143.79500000000002,54.7821,142.73540000000003C55.7118,133.54110000000003,65.9257,133.46390000000002,68.3221,137.02060000000003C60.495900000000006,137.31550000000004,54.9119,141.89360000000002,59.208800000000004,154.26470000000003L59.21660000000001,154.28330000000003C65.5896,158.11830000000003,73.37970000000001,157.65340000000003,74.00080000000001,150.20710000000003C74.28200000000001,146.58750000000003,71.56230000000001,142.86920000000003,67.67560000000002,143.35990000000004C64.55650000000001,143.76420000000005,62.12680000000002,147.37990000000005,64.50180000000002,150.07470000000004C64.61510000000001,147.53910000000005,67.48620000000001,146.02050000000003,69.64440000000002,147.34180000000003C71.43640000000002,148.45020000000002,71.96760000000002,151.60160000000005,69.98330000000001,152.86330000000004C69.97450000000002,152.88970000000003,69.95600000000002,152.89850000000004,69.93740000000001,152.90720000000005C69.70500000000001,153.08200000000005,69.4218,153.23730000000003,69.1376,153.34670000000006C62.65030000000001,156.41600000000005,58.248000000000005,147.31010000000006,62.75090000000001,142.77250000000006C67.50580000000001,138.00590000000005,75.123,141.34180000000006,76.5634,147.35700000000006C78.1191,153.90050000000005,72.69330000000001,159.58410000000006,66.2929,159.86330000000007C63.2686,159.9971,60.251,158.9453,57.9561,156.9507ZM82.6152,155.0107C83.4629,160.47410000000002,78.82130000000001,173.9248,64.0244,165.5498C75.2754,164.30610000000001,79.4609,157.501,81.1592,154.4287C84.1309,146.5117,80.7666,137.8594,72.2227,137.9531C78.5,132.2295,87.34280000000001,138.3115,88.3096,140.3847C89.5566,143.0576,88.6582,150.2354,82.6152,155.0107ZM87.8984,136.6113C87.2734,134.5942,86.51559999999999,132.9502,85.667,131.6269C80.5078,123.60350000000001,71.9043,127.4492,68.5957,132.1928C64.8115,128.163,60.41309999999999,128.1337,56.90039999999999,129.8925C52.49999999999999,132.09560000000002,49.48629999999999,137.10340000000002,50.79879999999999,140.58440000000002C44.615199999999994,143.62980000000002,40.79289999999999,152.5439,44.120099999999994,159.21140000000003C46.182599999999994,163.34860000000003,50.99799999999999,166.62010000000004,59.708999999999996,167.08880000000002C64.1328,173.68550000000002,70.9649,174.38370000000003,76.16409999999999,172.186C80.50389999999999,170.3496,83.70609999999999,166.4965,83.41609999999999,162.3711C94.51859999999999,157.19340000000003,96.83989999999999,149.24020000000002,94.20519999999999,143.20610000000002C93.0059,140.4639,90.7842,138.1196,87.8984,136.6113Z" stroke-width="0" stroke-opacity="1" transform="matrix(1,0,0,1,0,0)"/></svg>