<?xml version="1.0" encoding="UTF-8" standalone="no"?>
<!-- Created with Inkscape (http://www.inkscape.org/) -->

<svg
   xmlns:dc="http://purl.org/dc/elements/1.1/"
   xmlns:cc="http://creativecommons.org/ns#"
   xmlns:rdf="http://www.w3.org/1999/02/22-rdf-syntax-ns#"
   xmlns:svg="http://www.w3.org/2000/svg"
   xmlns="http://www.w3.org/2000/svg"
   xmlns:xlink="http://www.w3.org/1999/xlink"
   xmlns:sodipodi="http://sodipodi.sourceforge.net/DTD/sodipodi-0.dtd"
   xmlns:inkscape="http://www.inkscape.org/namespaces/inkscape"
   width="533.36053"
   height="339.41125"
   id="svg2"
   version="1.1"
   inkscape:version="0.48.1 "
   sodipodi:docname="babushkas.svg.2013_05_08_21_40_42.0.svg">
  <defs
     id="defs4">
    <radialGradient
       inkscape:collect="always"
       xlink:href="#linearGradient3094"
       id="radialGradient3812"
       cx="140.60938"
       cy="123.21875"
       fx="140.60938"
       fy="123.21875"
       r="5.984375"
       gradientTransform="matrix(0,0.66436963,-1.3045325,0,298.3064,28.29575)"
       gradientUnits="userSpaceOnUse" />
    <linearGradient
       id="linearGradient3094"
       inkscape:collect="always">
      <stop
         id="stop3096"
         offset="0"
         style="stop-color:#ff9955;stop-opacity:1" />
      <stop
         id="stop3098"
         offset="1"
         style="stop-color:#d45500;stop-opacity:1" />
    </linearGradient>
    <radialGradient
       inkscape:collect="always"
       xlink:href="#linearGradient3806"
       id="radialGradient3079"
       gradientUnits="userSpaceOnUse"
       gradientTransform="matrix(1.7855497,-0.19989782,0.03490247,0.29017558,-115.50948,114.56691)"
       cx="140.60938"
       cy="123.21875"
       fx="140.60938"
       fy="123.21875"
       r="5.984375" />
    <linearGradient
       inkscape:collect="always"
       id="linearGradient3806">
      <stop
         style="stop-color:#cc9004;stop-opacity:1"
         offset="0"
         id="stop3808" />
      <stop
         style="stop-color:#2c0000;stop-opacity:1"
         offset="1"
         id="stop3810" />
    </linearGradient>
    <radialGradient
       inkscape:collect="always"
       xlink:href="#linearGradient3806-5"
       id="radialGradient3057"
       gradientUnits="userSpaceOnUse"
       gradientTransform="matrix(0.79757205,0,0,1.1102344,31.432141,-14.712667)"
       cx="140.60938"
       cy="123.21875"
       fx="140.60938"
       fy="123.21875"
       r="5.984375" />
    <linearGradient
       inkscape:collect="always"
       id="linearGradient3806-5">
      <stop
         style="stop-color:#cc9004;stop-opacity:1"
         offset="0"
         id="stop3808-2" />
      <stop
         style="stop-color:#2c0000;stop-opacity:1"
         offset="1"
         id="stop3810-3" />
    </linearGradient>
  </defs>
  <sodipodi:namedview
     id="base"
     pagecolor="#ffffff"
     bordercolor="#666666"
     borderopacity="1.0"
     inkscape:pageopacity="0.0"
     inkscape:pageshadow="2"
     inkscape:zoom="1.3458939"
     inkscape:cx="233.84441"
     inkscape:cy="1.1166141"
     inkscape:document-units="px"
     inkscape:current-layer="layer1"
     showgrid="false"
     showguides="true"
     inkscape:guide-bbox="true"
     inkscape:window-width="1024"
     inkscape:window-height="712"
     inkscape:window-x="-4"
     inkscape:window-y="-4"
     inkscape:window-maximized="1"
     fit-margin-top="0"
     fit-margin-left="0"
     fit-margin-right="0"
     fit-margin-bottom="0" />
  <metadata
     id="metadata7">
    <rdf:RDF>
      <cc:Work
         rdf:about="">
        <dc:format>image/svg+xml</dc:format>
        <dc:type
           rdf:resource="http://purl.org/dc/dcmitype/StillImage" />
        <dc:title />
      </cc:Work>
    </rdf:RDF>
  </metadata>
  <g
     inkscape:label="Layer 1"
     inkscape:groupmode="layer"
     id="layer1"
     transform="translate(-80.812202,-422.02701)">
    <rect
       style="fill:#f2f2f2;fill-opacity:1;stroke:none"
       id="rect4435"
       width="533.36053"
       height="339.41125"
       x="80.812202"
       y="422.02701"
       ry="0" />
    <path
       style="fill:#28170b;fill-opacity:1;stroke:none"
       id="path4027"
       d=""
       inkscape:connector-curvature="0" />
    <rect
       ry="0"
       y="704.36725"
       x="80.812202"
       height="57.071011"
       width="533.36053"
       id="rect4437"
       style="fill:#999999;fill-opacity:1;stroke:none" />
    <g
       id="g3949"
       transform="matrix(0.64504224,0,0,0.64504224,80.704836,185.31001)">
      <path
         inkscape:connector-curvature="0"
         id="path2995"
         d="m 187.08703,470.64312 c -51.19241,0.68196 -60.92143,42.54182 -60.92143,84.93914 0.29944,34.76834 -32.260242,52.79589 -32.260242,86.29157 0,0 -3.978217,36.92969 0,54.39404 8.079382,35.4684 20.973322,79.40452 40.115142,106.90787 -11.26919,6.08496 -17.94279,13.62394 -17.94279,20.71525 0,15.3434 31.17747,26.75171 72.74317,26.75171 41.5657,0 72.74318,-11.40831 72.74318,-26.75171 0,-7.47678 -7.40447,-15.46471 -19.808,-21.70483 19.87831,-27.32533 34.53127,-70.20386 41.849,-105.91829 3.61345,-17.63559 -3.33636,-54.39404 -3.33636,-54.39404 -2.61958,-42.5961 -32.36738,-55.2302 -32.26025,-86.29157 0,-42.39732 -9.73921,-85.62097 -60.92142,-84.93914 z"
         style="fill:#ebc014;fill-opacity:1;stroke:none" />
      <path
         inkscape:connector-curvature="0"
         id="path3772"
         d="m 186.64043,470.6427 c -51.19241,0.68196 -60.92143,42.54018 -60.92143,84.9375 0.12109,14.05951 -5.12824,25.37939 -11.42769,36.09375 18.7788,14.76208 44.8507,20.59375 73.66265,20.59375 28.59325,0 54.47027,-5.7344 73.21604,-20.25 -7.17601,-11.40809 -13.65823,-21.91903 -13.60815,-36.4375 0,-42.39732 -9.73921,-85.61933 -60.92142,-84.9375 z"
         style="fill:#e56a1a;fill-opacity:1;stroke:none" />
      <path
         sodipodi:nodetypes="sssss"
         style="fill:#ffe6d5;fill-opacity:1;stroke:none"
         d="m 230.71616,556.71885 c 0,29.23135 -27.21261,49.04202 -43.17348,48.64236 -15.28454,-0.38272 -43.17349,-19.41101 -43.17349,-48.64236 0,-29.23139 19.32942,-52.92809 43.17349,-52.92809 23.84405,0 43.17348,23.6967 43.17348,52.92809 z"
         id="path3787"
         inkscape:connector-curvature="0" />
      <path
         sodipodi:nodetypes="cccsccccc"
         inkscape:connector-curvature="0"
         id="path3817"
         d="m 94.45704,698.5802 c 8.10883,35.05196 20.83214,77.68021 39.56346,104.59375 -5.14629,2.77881 -9.31556,5.85834 -12.34716,9.0625 14.43431,11.38376 35.18931,17.96875 64.99336,17.96875 31.56636,0 52.96771,-7.29849 67.46279,-19.78125 -3.21503,-2.9287 -7.38406,-5.73989 -12.37343,-8.25 19.44893,-26.73508 33.88112,-68.32708 41.34986,-103.5625 -7.49572,35.31623 -179.24227,34.37946 -188.64888,-0.0312 z"
         style="fill:#e56a1a;fill-opacity:1;stroke:none" />
      <path
         inkscape:connector-curvature="0"
         id="path3807"
         d="m 112.79389,721.6427 c -4.34114,0 -8.36456,1.09257 -11.76921,2.9375 3.18203,11.43407 6.85706,23.0398 11.00736,34.1875 0.25595,0.008 0.50375,0.0312 0.76185,0.0312 12.10451,0 15.91996,-14.74329 15.91996,-25 0,-10.25672 -3.81545,-12.15625 -15.91996,-12.15625 z"
         style="fill:#ffe6d5;fill-opacity:1;stroke:none" />
      <path
         inkscape:connector-curvature="0"
         id="path3798"
         d="m 107.72367,603.11145 c -7.2244,11.74219 -13.818312,23.67868 -13.818312,38.75 0,0 -3.978217,36.9419 0,54.40625 2.496429,10.9593 5.473954,22.72089 8.931992,34.5625 1.39131,0.0566 2.80272,0.0937 4.25583,0.0937 39.04112,-0.28972 24.64685,-47.49361 25.21973,-85 0,-17.95 -9.64783,-42.14298 -24.58924,-42.8125 z"
         style="fill:#faf3ee;fill-opacity:1;stroke:none" />
      <path
         style="fill:#e56a1a;fill-opacity:1;stroke:none"
         d="m 187.22768,608.07127 c -4.63549,0 -8.53204,2.56762 -10.03125,6.16719 -5.53057,1.99301 -12.15524,4.9496 -19,8.63408 -16.17079,8.70462 -25.21875,20.88623 -25.21875,20.88623 0,0 17.17294,-1.90297 33.34375,-10.60757 5.28221,-2.84337 10.02897,-5.76432 13.96875,-8.49703 1.86749,1.39153 4.28393,2.22019 6.9375,2.22019 l 5,0 c 2.75017,0 5.26309,-0.90106 7.15625,-2.38465 3.40089,2.33362 7.23796,4.74708 11.40625,7.12654 16.0052,9.13649 32.28125,11.26541 32.28125,11.26541 0,0 -9.65106,-12.70908 -25.65625,-21.84558 -5.55081,-3.16866 -10.90942,-5.8173 -15.625,-7.83919 -1.76715,-3.04899 -5.3815,-5.12562 -9.5625,-5.12562 l -5,0 z"
         id="path3824"
         inkscape:connector-curvature="0" />
      <path
         style="fill:#e56a1a;fill-opacity:1;stroke:none"
         d="m 187.22768,608.07127 c -4.63549,0 -8.53204,2.56762 -10.03125,6.16719 -5.53057,1.99301 -12.15524,4.9496 -19,8.63408 -16.17079,8.70462 -25.21875,20.88623 -25.21875,20.88623 0,0 17.17294,-1.90297 33.34375,-10.60757 5.28221,-2.84337 10.02897,-5.76432 13.96875,-8.49703 1.86749,1.39153 4.28393,2.22019 6.9375,2.22019 l 5,0 c 2.75017,0 5.26309,-0.90106 7.15625,-2.38465 3.40089,2.33362 7.23796,4.74708 11.40625,7.12654 16.0052,9.13649 32.28125,11.26541 32.28125,11.26541 0,0 -9.65106,-12.70908 -25.65625,-21.84558 -5.55081,-3.16866 -10.90942,-5.8173 -15.625,-7.83919 -1.76715,-3.04899 -5.3815,-5.12562 -9.5625,-5.12562 l -5,0 z"
         id="path3826"
         inkscape:connector-curvature="0" />
      <path
         style="fill:#e56a1a;fill-opacity:1;stroke:none"
         d="m 187.22768,608.07127 c -4.63549,0 -8.53204,2.56762 -10.03125,6.16719 -5.53057,1.99301 -12.15524,4.9496 -19,8.63408 -16.17079,8.70462 -25.21875,20.88623 -25.21875,20.88623 0,0 17.17294,-1.90297 33.34375,-10.60757 5.28221,-2.84337 10.02897,-5.76432 13.96875,-8.49703 1.86749,1.39153 4.28393,2.22019 6.9375,2.22019 l 5,0 c 2.75017,0 5.26309,-0.90106 7.15625,-2.38465 3.40089,2.33362 7.23796,4.74708 11.40625,7.12654 16.0052,9.13649 32.28125,11.26541 32.28125,11.26541 0,0 -9.65106,-12.70908 -25.65625,-21.84558 -5.55081,-3.16866 -10.90942,-5.8173 -15.625,-7.83919 -1.76715,-3.04899 -5.3815,-5.12562 -9.5625,-5.12562 l -5,0 z"
         id="path3828"
         inkscape:connector-curvature="0" />
      <path
         style="fill:#e56a1a;fill-opacity:1;stroke:none"
         d="m 187.22768,608.07127 c -4.63549,0 -8.53204,2.56762 -10.03125,6.16719 -5.53057,1.99301 -12.15524,4.9496 -19,8.63408 -16.17079,8.70462 -25.21875,20.88623 -25.21875,20.88623 0,0 17.17294,-1.90297 33.34375,-10.60757 5.28221,-2.84337 10.02897,-5.76432 13.96875,-8.49703 1.86749,1.39153 4.28393,2.22019 6.9375,2.22019 l 5,0 c 2.75017,0 5.26309,-0.90106 7.15625,-2.38465 3.40089,2.33362 7.23796,4.74708 11.40625,7.12654 16.0052,9.13649 32.28125,11.26541 32.28125,11.26541 0,0 -9.65106,-12.70908 -25.65625,-21.84558 -5.55081,-3.16866 -10.90942,-5.8173 -15.625,-7.83919 -1.76715,-3.04899 -5.3815,-5.12562 -9.5625,-5.12562 l -5,0 z"
         id="path3830"
         inkscape:connector-curvature="0" />
      <path
         inkscape:connector-curvature="0"
         id="rect3780"
         d="m 187.22768,608.07127 c -4.63549,0 -8.53204,2.56762 -10.03125,6.16719 -5.53057,1.99301 -12.15524,4.9496 -19,8.63408 -16.17079,8.70462 -25.21875,20.88623 -25.21875,20.88623 0,0 17.17294,-1.90297 33.34375,-10.60757 5.28221,-2.84337 10.02897,-5.76432 13.96875,-8.49703 1.86749,1.39153 4.28393,2.22019 6.9375,2.22019 l 5,0 c 2.75017,0 5.26309,-0.90106 7.15625,-2.38465 3.40089,2.33362 7.23796,4.74708 11.40625,7.12654 16.0052,9.13649 32.28125,11.26541 32.28125,11.26541 0,0 -9.65106,-12.70908 -25.65625,-21.84558 -5.55081,-3.16866 -10.90942,-5.8173 -15.625,-7.83919 -1.76715,-3.04899 -5.3815,-5.12562 -9.5625,-5.12562 l -5,0 z"
         style="fill:#e56a1a;fill-opacity:1;stroke:none" />
      <path
         inkscape:connector-curvature="0"
         style="fill:#ffe6d5;fill-opacity:1;stroke:none"
         d="m 265.10592,721.6427 c 4.34114,0 8.36456,1.09257 11.76921,2.9375 -3.18203,11.43407 -6.85706,23.0398 -11.00736,34.1875 -0.25595,0.008 -0.50374,0.0312 -0.76185,0.0312 -12.10451,0 -15.91996,-14.74329 -15.91996,-25 0,-10.25672 3.81545,-12.15625 15.91996,-12.15625 z"
         id="path3813" />
      <path
         inkscape:connector-curvature="0"
         style="fill:#faf3ee;fill-opacity:1;stroke:none"
         d="m 270.17614,603.11145 c 7.2244,11.74219 13.81831,23.67868 13.81831,38.75 0,0 3.97822,36.9419 0,54.40625 -2.49643,10.9593 -5.47395,22.72089 -8.93199,34.5625 -1.39131,0.0566 -2.80272,0.0937 -4.25583,0.0937 -39.04112,-0.28972 -24.64685,-47.49361 -25.21974,-85 0,-17.95 9.64783,-42.14298 24.58925,-42.8125 z"
         id="path3815" />
      <path
         transform="matrix(0.93939394,0,0,0.93939394,17.857143,331.37299)"
         d="m 165,251.59448 c 0,6.50907 -5.43654,11.78572 -12.14285,11.78572 -6.70632,0 -12.14286,-5.27665 -12.14286,-11.78572 0,-6.50907 5.43654,-11.78571 12.14286,-11.78571 6.70631,0 12.14285,5.27664 12.14285,11.78571 z"
         sodipodi:ry="11.785714"
         sodipodi:rx="12.142858"
         sodipodi:cy="251.59448"
         sodipodi:cx="152.85715"
         id="path3832"
         style="fill:#ffccaa;fill-opacity:1;stroke:none"
         sodipodi:type="arc" />
      <path
         sodipodi:type="arc"
         style="fill:#ffccaa;fill-opacity:1;stroke:none"
         id="path3834"
         sodipodi:cx="152.85715"
         sodipodi:cy="251.59448"
         sodipodi:rx="12.142858"
         sodipodi:ry="11.785714"
         d="m 165,251.59448 c 0,6.50907 -5.43654,11.78572 -12.14285,11.78572 -6.70632,0 -12.14286,-5.27665 -12.14286,-11.78572 0,-6.50907 5.43654,-11.78571 12.14286,-11.78571 6.70631,0 12.14285,5.27664 12.14285,11.78571 z"
         transform="matrix(0.93939394,0,0,0.93939394,70,328.51585)" />
      <path
         style="fill:#d45500;fill-opacity:1;stroke:none"
         d="m 180.19071,558.1491 c -0.0233,0.19571 -0.0342,0.39295 -0.0342,0.59382 0,3.25459 3.13237,5.89312 6.98999,5.89312 3.85763,0 6.97862,-2.63853 6.97862,-5.89312 0,-0.20087 -0.0108,-0.39811 -0.0342,-0.59382 -0.35769,2.97155 -3.32793,5.29178 -6.94445,5.29178 -3.61653,0 -6.59815,-2.32023 -6.95584,-5.29178 z"
         id="path3773"
         inkscape:connector-curvature="0" />
      <path
         sodipodi:nodetypes="ccccc"
         style="fill:#d45500;fill-opacity:1;stroke:none"
         d="m 165.29438,567.18569 c 1.4147,7.81281 11.09309,16.11395 21.84648,16.20035 11.00525,-0.11365 21.24897,-8.51555 21.84648,-16.20035 -1.26077,5.15184 -13.76632,1.89719 -21.43728,4.34135 -8.50889,-2.39911 -20.99491,0.81049 -22.25568,-4.34135 z"
         id="path3778"
         inkscape:connector-curvature="0" />
      <path
         sodipodi:nodetypes="cccc"
         inkscape:connector-curvature="0"
         id="rect3783"
         d="m 213.09556,534.28002 c 1.24714,0.32154 0.9973,2.17096 -0.20219,1.66001 -4.96645,-1.81003 -9.35421,-1.73118 -15.6227,0.0691 7.00324,-5.93308 14.00789,-2.36602 15.82489,-1.72911 z"
         style="fill:#502d16;fill-opacity:1;stroke:none" />
      <path
         style="fill:#502d16;fill-opacity:1;stroke:none"
         d="m 163.04761,534.40329 c 7.64078,-4.38433 15.0501,3.12818 12.77358,2.29436 -4.96645,-1.81003 -9.3542,-1.73118 -15.6227,0.0691 -0.57141,-3.78796 4.10296,-8.63332 2.84912,-2.36346 z"
         id="path3086"
         inkscape:connector-curvature="0"
         sodipodi:nodetypes="cccc" />
      <path
         inkscape:connector-curvature="0"
         id="path3789"
         d="m 187.53363,503.79895 c -21.95452,0 -40.05962,20.09155 -42.79474,46.09375 10.44217,-4.35601 22.52275,-14.66349 29.712,-22.03125 5.1542,-5.28218 11.37813,-11.95029 15.5259,-19.40625 4.14777,7.45596 10.3717,14.12407 15.5259,19.40625 6.01871,6.16815 15.46515,14.39577 24.51043,19.46875 -3.61879,-24.74623 -21.25275,-43.53125 -42.47949,-43.53125 z"
         style="fill:#c87137;fill-opacity:1;stroke:none" />
      <g
         id="g3219">
        <path
           id="path2999"
           d="m 208.55488,546.82381 c 0,-1.78709 -2.84975,-3.2315 -6.36187,-3.2315 -3.51212,0 -6.36187,1.44441 -6.36187,3.2315 0,1.78708 2.84975,3.24841 6.36187,3.24841 3.51212,0 6.36187,-1.46133 6.36187,-3.24841 z"
           style="fill:#28170b;fill-opacity:1;stroke:none"
           inkscape:connector-curvature="0" />
        <path
           sodipodi:nodetypes="cccsc"
           inkscape:connector-curvature="0"
           id="path4025"
           d="m 195.38063,543.05126 c 8.05453,-3.56771 15.07358,1.05055 15.29495,3.26796 -4.75179,-2.31567 -9.12404,-2.69261 -15.54551,-1.55259 -0.86697,-0.16748 -0.21297,-1.77413 0.25061,-1.71577 0.46357,0.0584 -5e-5,4e-4 -5e-5,4e-4 z"
           style="fill:#28170b;fill-opacity:1;stroke:none" />
      </g>
      <g
         transform="matrix(1.0520806,0,0,1.1281453,312.67215,-206.49091)"
         id="g3899">
        <path
           style="fill:#2c7a2c;fill-opacity:1;stroke:none"
           d="m -113.40035,853.07693 c -5.83006,-11.06714 -8.24097,-21.2585 -5.38494,-22.76302 2.85604,-1.50453 13.70381,-6.90591 19.533873,4.16124 5.830046,11.06713 14.381904,18.0235 1.578622,35.91642 -3.473635,-12.2087 -9.897505,-6.2475 -15.727555,-17.31464 z"
           id="path3937"
           inkscape:connector-curvature="0"
           sodipodi:nodetypes="scscs" />
        <path
           sodipodi:nodetypes="scscs"
           inkscape:connector-curvature="0"
           id="path3939"
           d="m -108.46457,850.21437 c -4.42234,-8.39489 -6.25111,-16.12545 -4.08469,-17.2667 2.16642,-1.14124 10.39489,-5.2384 14.817233,3.15648 4.422329,8.39487 10.90926,13.67157 1.197457,27.24406 -2.634897,-9.26079 -7.50768,-4.73897 -11.93,-13.13384 z"
           style="fill:#87c867;fill-opacity:1;stroke:none" />
        <path
           style="fill:#abd995;fill-opacity:1;stroke:none"
           d="m -103.90056,846.54531 c -3.32482,-6.3115 -4.69975,-12.12353 -3.07097,-12.98156 1.62876,-0.85801 7.815153,-3.93837 11.139977,2.37313 3.324831,6.31149 8.201875,10.27863 0.900285,20.4828 -1.980985,-6.96251 -5.644472,-3.5629 -8.969292,-9.87437 z"
           id="path3941"
           inkscape:connector-curvature="0"
           sodipodi:nodetypes="scscs" />
        <path
           sodipodi:nodetypes="scscs"
           inkscape:connector-curvature="0"
           id="path3931"
           d="m -112.91083,799.54519 c -17.29465,0 -31.31473,3.61809 -31.31473,8.08122 0,4.46314 0.38302,21.2132 17.67767,21.2132 17.29464,0 31.31472,5.97837 44.95178,-21.2132 -17.172589,3.61809 -14.02008,-8.08122 -31.31472,-8.08122 z"
           style="fill:#2c7a2c;fill-opacity:1;stroke:none" />
        <path
           style="fill:#2c7a2c;fill-opacity:1;stroke:none"
           d="m -129.29952,775.58038 c 0,17.29465 -3.61809,31.31473 -8.08122,31.31473 -4.46314,0 -21.2132,-0.38302 -21.2132,-17.67767 0,-17.29465 -5.97837,-31.31473 21.2132,-44.95179 -3.61809,17.17259 8.08122,14.02008 8.08122,31.31473 z"
           id="path3894"
           inkscape:connector-curvature="0"
           sodipodi:nodetypes="scscs" />
        <path
           style="fill:#87c867;fill-opacity:1;stroke:none"
           d="m -113.23187,807.42747 c -13.1187,0 -23.7535,2.74447 -23.7535,6.12994 0,3.38547 0.29054,16.09107 13.40923,16.09107 13.11869,0 23.753491,4.53484 34.097752,-16.09107 -13.026112,2.74447 -10.634802,-6.12994 -23.753482,-6.12994 z"
           id="path3933"
           inkscape:connector-curvature="0"
           sodipodi:nodetypes="scscs" />
        <path
           sodipodi:nodetypes="scscs"
           inkscape:connector-curvature="0"
           id="path3927"
           d="m -132.58251,779.85862 c 0,13.1187 -2.74447,23.7535 -6.12994,23.7535 -3.38547,0 -16.09107,-0.29054 -16.09107,-13.40923 0,-13.1187 -4.53484,-23.7535 16.09107,-34.09776 -2.74447,13.02611 6.12994,10.6348 6.12994,23.75349 z"
           style="fill:#87c867;fill-opacity:1;stroke:none" />
        <path
           style="fill:#abd995;fill-opacity:1;stroke:none"
           d="m -133.8452,784.996 c 0,9.86298 -2.06336,17.85851 -4.60865,17.85851 -2.54528,0 -12.09768,-0.21844 -12.09768,-10.08141 0,-9.86299 -3.40942,-17.85851 12.09768,-25.6356 -2.06336,9.79337 4.60865,7.99553 4.60865,17.8585 z"
           id="path3929"
           inkscape:connector-curvature="0"
           sodipodi:nodetypes="scscs" />
        <path
           sodipodi:nodetypes="scscs"
           inkscape:connector-curvature="0"
           id="path3935"
           d="m -114.77901,815.37468 c -9.86298,0 -17.85851,2.06336 -17.85851,4.60865 0,2.54528 0.21844,12.09768 10.08141,12.09768 9.86299,0 17.8585,3.40942 25.635591,-12.09768 -9.793371,2.06336 -7.995531,-4.60865 -17.858491,-4.60865 z"
           style="fill:#abd995;fill-opacity:1;stroke:none" />
        <g
           id="g3887">
          <path
             sodipodi:nodetypes="cccccc"
             inkscape:connector-curvature="0"
             id="path3095"
             d="m -122.22846,784.67175 c -23.54003,-14.98285 23.601242,-56.41833 14.48673,-8.85748 10.617325,-18.79528 38.21767,-19.91324 15.100698,6.53224 15.168306,4.21823 36.143911,13.01233 9.722925,20.64762 27.166128,20.49866 -6.155191,33.33846 -22.935793,15.91347 -16.58784,0.96918 -37.34072,-11.41365 -16.37456,-34.23585 z"
             style="fill:#e9afaf;stroke:none" />
          <path
             style="fill:#e9afaf;stroke:none"
             d="m -128.00081,784.67175 c -26.99666,-14.98285 27.06686,-56.41833 16.61397,-8.85748 12.176374,-18.79528 43.829569,-19.91324 17.318088,6.53224 17.395629,4.21823 41.451303,13.01233 11.150645,20.64762 31.155217,20.49866 -7.059023,33.33846 -26.303693,15.91347 -19.02361,0.96918 -42.82386,-11.41365 -18.77901,-34.23585 z"
             id="path3111"
             inkscape:connector-curvature="0"
             sodipodi:nodetypes="cccccc" />
          <path
             style="fill:#ffd5d5;stroke:none"
             d="m -119.89684,788.95264 c -18.36063,-11.68625 18.40837,-44.00488 11.29928,-6.90862 8.28125,-14.65984 29.808823,-15.53182 11.778166,5.09499 11.830897,3.29011 28.191342,10.14929 7.583637,16.10462 21.188897,15.98844 -4.800894,26.00316 -17.889343,12.41211 -12.93809,0.75593 -29.12482,-8.90236 -12.77174,-26.7031 z"
             id="path3115"
             inkscape:connector-curvature="0"
             sodipodi:nodetypes="cccccc" />
          <path
             sodipodi:nodetypes="cccccc"
             inkscape:connector-curvature="0"
             id="path3113"
             d="m -123.89404,793.46214 c -16.41836,-10.45002 16.46105,-39.34983 10.10399,-6.17778 7.40522,-13.10906 26.655508,-13.8888 10.53222,4.55601 10.579368,2.94207 25.209127,9.07565 6.781403,14.401 18.947435,14.29711 -4.293033,23.25242 -15.996923,11.0991 -11.56945,0.67596 -26.04386,-7.96063 -11.42069,-23.87833 z"
             style="fill:#d35f5f;stroke:none" />
          <path
             style="fill:#ffe6e6;fill-opacity:1;stroke:none"
             d="m -125.56466,796.20941 c -9.84749,-6.26778 9.8731,-23.60146 6.06023,-3.70535 4.44155,-7.86262 15.98758,-8.3303 6.31707,2.73263 6.34535,1.76461 15.120069,5.44344 4.06739,8.63751 11.364394,8.5752 -2.5749,13.94646 -9.59472,6.65708 -6.93919,0.40543 -15.62073,-4.77467 -6.84997,-14.32187 z"
             id="path3117"
             inkscape:connector-curvature="0"
             sodipodi:nodetypes="cccccc" />
        </g>
        <path
           sodipodi:nodetypes="scscs"
           inkscape:connector-curvature="0"
           id="path3943"
           d="m -138.47763,838.19094 c 12.48872,-0.70913 22.46449,-3.89668 22.28148,-7.11957 -0.183,-3.2229 -1.14639,-15.30267 -13.63513,-14.59355 -12.48871,0.70914 -22.85795,-3.03307 -31.59055,17.16154 12.25224,-3.31679 10.45547,5.26071 22.9442,4.55158 z"
           style="fill:#2c7a2c;fill-opacity:1;stroke:none" />
        <path
           style="fill:#87c867;fill-opacity:1;stroke:none"
           d="m -142.1902,835.99683 c 9.47322,-0.5379 17.04024,-2.95579 16.90143,-5.40049 -0.13882,-2.4447 -0.86959,-11.60769 -10.34281,-11.0698 -9.4732,0.53791 -17.3387,-2.3007 -23.96271,13.01772 9.29381,-2.51593 7.9309,3.99049 17.40409,3.45257 z"
           id="path3945"
           inkscape:connector-curvature="0"
           sodipodi:nodetypes="scscs" />
        <path
           sodipodi:nodetypes="scscs"
           inkscape:connector-curvature="0"
           id="path3947"
           d="m -146.43899,833.42365 c 7.12222,-0.40442 12.8113,-2.22224 12.70694,-4.06024 -0.10437,-1.83797 -0.65378,-8.72697 -7.77599,-8.32255 -7.12221,0.40441 -13.03569,-1.72975 -18.01581,9.78705 6.98734,-1.89153 5.96268,3.00015 13.08486,2.59574 z"
           style="fill:#abd995;fill-opacity:1;stroke:none" />
      </g>
      <g
         inkscape:transform-center-y="19.192898"
         inkscape:transform-center-x="7.4100395"
         id="g3909"
         transform="matrix(-0.29204511,0.84184917,0.64636533,-0.02478471,-368.52113,861.9997)">
        <g
           id="g3915">
          <path
             style="fill:#e9afaf;stroke:none"
             d="m -122.22846,784.67175 c -23.54003,-14.98285 23.601242,-56.41833 14.48673,-8.85748 10.617325,-18.79528 38.21767,-19.91324 15.100698,6.53224 15.168306,4.21823 36.143911,13.01233 9.722925,20.64762 27.166128,20.49866 -6.155191,33.33846 -22.935793,15.91347 -16.58784,0.96918 -37.34072,-11.41365 -16.37456,-34.23585 z"
             id="path3917"
             inkscape:connector-curvature="0"
             sodipodi:nodetypes="cccccc" />
          <path
             sodipodi:nodetypes="cccccc"
             inkscape:connector-curvature="0"
             id="path3919"
             d="m -128.00081,784.67175 c -26.99666,-14.98285 27.06686,-56.41833 16.61397,-8.85748 12.176374,-18.79528 43.829569,-19.91324 17.318088,6.53224 17.395629,4.21823 41.451303,13.01233 11.150645,20.64762 31.155217,20.49866 -7.059023,33.33846 -26.303693,15.91347 -19.02361,0.96918 -42.82386,-11.41365 -18.77901,-34.23585 z"
             style="fill:#e9afaf;stroke:none" />
          <path
             sodipodi:nodetypes="cccccc"
             inkscape:connector-curvature="0"
             id="path3921"
             d="m -119.89684,788.95264 c -18.36063,-11.68625 18.40837,-44.00488 11.29928,-6.90862 8.28125,-14.65984 29.808823,-15.53182 11.778166,5.09499 11.830897,3.29011 28.191342,10.14929 7.583637,16.10462 21.188897,15.98844 -4.800894,26.00316 -17.889343,12.41211 -12.93809,0.75593 -29.12482,-8.90236 -12.77174,-26.7031 z"
             style="fill:#ffd5d5;stroke:none" />
          <path
             style="fill:#d35f5f;stroke:none"
             d="m -123.89404,793.46214 c -16.41836,-10.45002 16.46105,-39.34983 10.10399,-6.17778 7.40522,-13.10906 26.655508,-13.8888 10.53222,4.55601 10.579368,2.94207 25.209127,9.07565 6.781403,14.401 18.947435,14.29711 -4.293033,23.25242 -15.996923,11.0991 -11.56945,0.67596 -26.04386,-7.96063 -11.42069,-23.87833 z"
             id="path3923"
             inkscape:connector-curvature="0"
             sodipodi:nodetypes="cccccc" />
          <path
             sodipodi:nodetypes="cccccc"
             inkscape:connector-curvature="0"
             id="path3925"
             d="m -125.56466,796.20941 c -9.84749,-6.26778 9.8731,-23.60146 6.06023,-3.70535 4.44155,-7.86262 15.98758,-8.3303 6.31707,2.73263 6.34535,1.76461 15.120069,5.44344 4.06739,8.63751 11.364394,8.5752 -2.5749,13.94646 -9.59472,6.65708 -6.93919,0.40543 -15.62073,-4.77467 -6.84997,-14.32187 z"
             style="fill:#ffe6e6;fill-opacity:1;stroke:none" />
        </g>
      </g>
      <g
         id="g3223"
         transform="matrix(-1,0,0,1,373.24807,0)">
        <path
           inkscape:connector-curvature="0"
           style="fill:#28170b;fill-opacity:1;stroke:none"
           d="m 208.55488,546.82381 c 0,-1.78709 -2.84975,-3.2315 -6.36187,-3.2315 -3.51212,0 -6.36187,1.44441 -6.36187,3.2315 0,1.78708 2.84975,3.24841 6.36187,3.24841 3.51212,0 6.36187,-1.46133 6.36187,-3.24841 z"
           id="path3225" />
        <path
           style="fill:#28170b;fill-opacity:1;stroke:none"
           d="m 195.38063,543.05126 c 8.05453,-3.56771 15.07358,1.05055 15.29495,3.26796 -4.75179,-2.31567 -9.12404,-2.69261 -15.54551,-1.55259 -0.86697,-0.16748 -0.0358,-1.75459 0.25061,-1.71577 0.28644,0.0388 -5e-5,4e-4 -5e-5,4e-4 z"
           id="path3227"
           inkscape:connector-curvature="0"
           sodipodi:nodetypes="ccczc" />
      </g>
    </g>
    <g
       id="g4145"
       transform="matrix(0.64504224,0,0,0.64504224,31.809766,178.7941)">
      <g
         transform="matrix(0.86974622,0,0,0.86974622,343.33127,120.90096)"
         id="g4001">
        <path
           inkscape:connector-curvature="0"
           id="path4003"
           d="m 187.08703,470.64312 c -51.19241,0.68196 -60.92143,42.54182 -60.92143,84.93914 0.29944,34.76834 -32.260242,52.79589 -32.260242,86.29157 0,0 -3.978217,36.92969 0,54.39404 8.079382,35.4684 20.973322,79.40452 40.115142,106.90787 -11.26919,6.08496 -17.94279,13.62394 -17.94279,20.71525 0,15.3434 31.17747,26.75171 72.74317,26.75171 41.5657,0 72.74318,-11.40831 72.74318,-26.75171 0,-7.47678 -7.40447,-15.46471 -19.808,-21.70483 19.87831,-27.32533 34.53127,-70.20386 41.849,-105.91829 3.61345,-17.63559 -3.33636,-54.39404 -3.33636,-54.39404 -2.61958,-42.5961 -32.36738,-55.2302 -32.26025,-86.29157 0,-42.39732 -9.73921,-85.62097 -60.92142,-84.93914 z"
           style="fill:#87aade;fill-opacity:1;stroke:none" />
        <path
           inkscape:connector-curvature="0"
           id="path4005"
           d="m 186.64043,470.6427 c -51.19241,0.68196 -60.92143,42.54018 -60.92143,84.9375 0.12109,14.05951 -5.12824,25.37939 -11.42769,36.09375 18.7788,14.76208 44.8507,20.59375 73.66265,20.59375 28.59325,0 54.47027,-5.7344 73.21604,-20.25 -7.17601,-11.40809 -13.65823,-21.91903 -13.60815,-36.4375 0,-42.39732 -9.73921,-85.61933 -60.92142,-84.9375 z"
           style="fill:#003380;fill-opacity:1;stroke:none" />
        <path
           sodipodi:nodetypes="sssss"
           style="fill:#ffe6d5;fill-opacity:1;stroke:none"
           d="m 230.71616,556.71885 c 0,29.23135 -27.21261,49.04202 -43.17348,48.64236 -15.28454,-0.38272 -43.17349,-19.41101 -43.17349,-48.64236 0,-29.23139 19.32942,-52.92809 43.17349,-52.92809 23.84405,0 43.17348,23.6967 43.17348,52.92809 z"
           id="path4007"
           inkscape:connector-curvature="0" />
        <path
           sodipodi:nodetypes="cccsccccc"
           inkscape:connector-curvature="0"
           id="path4009"
           d="m 94.45704,698.5802 c 8.10883,35.05196 20.83214,77.68021 39.56346,104.59375 -5.14629,2.77881 -9.31556,5.85834 -12.34716,9.0625 14.43431,11.38376 35.18931,17.96875 64.99336,17.96875 31.56636,0 52.96771,-7.29849 67.46279,-19.78125 -3.21503,-2.9287 -7.38406,-5.73989 -12.37343,-8.25 19.44893,-26.73508 33.88112,-68.32708 41.34986,-103.5625 -7.49572,35.31623 -179.24227,34.37946 -188.64888,-0.0312 z"
           style="fill:#164450;fill-opacity:1;stroke:none" />
        <path
           inkscape:connector-curvature="0"
           id="path4011"
           d="m 112.79389,721.6427 c -4.34114,0 -8.36456,1.09257 -11.76921,2.9375 3.18203,11.43407 6.85706,23.0398 11.00736,34.1875 0.25595,0.008 0.50375,0.0312 0.76185,0.0312 12.10451,0 15.91996,-14.74329 15.91996,-25 0,-10.25672 -3.81545,-12.15625 -15.91996,-12.15625 z"
           style="fill:#ffe6d5;fill-opacity:1;stroke:none" />
        <path
           inkscape:connector-curvature="0"
           id="path4013"
           d="m 107.72367,603.11145 c -7.2244,11.74219 -13.818312,23.67868 -13.818312,38.75 0,0 -3.978217,36.9419 0,54.40625 2.496429,10.9593 5.473954,22.72089 8.931992,34.5625 1.39131,0.0566 2.80272,0.0937 4.25583,0.0937 39.04112,-0.28972 24.64685,-47.49361 25.21973,-85 0,-17.95 -9.64783,-42.14298 -24.58924,-42.8125 z"
           style="fill:#d5e5ff;fill-opacity:1;stroke:none" />
        <path
           style="fill:#e56a1a;fill-opacity:1;stroke:none"
           d="m 187.22768,608.07127 c -4.63549,0 -8.53204,2.56762 -10.03125,6.16719 -5.53057,1.99301 -12.15524,4.9496 -19,8.63408 -16.17079,8.70462 -25.21875,20.88623 -25.21875,20.88623 0,0 17.17294,-1.90297 33.34375,-10.60757 5.28221,-2.84337 10.02897,-5.76432 13.96875,-8.49703 1.86749,1.39153 4.28393,2.22019 6.9375,2.22019 l 5,0 c 2.75017,0 5.26309,-0.90106 7.15625,-2.38465 3.40089,2.33362 7.23796,4.74708 11.40625,7.12654 16.0052,9.13649 32.28125,11.26541 32.28125,11.26541 0,0 -9.65106,-12.70908 -25.65625,-21.84558 -5.55081,-3.16866 -10.90942,-5.8173 -15.625,-7.83919 -1.76715,-3.04899 -5.3815,-5.12562 -9.5625,-5.12562 l -5,0 z"
           id="path4015"
           inkscape:connector-curvature="0" />
        <path
           style="fill:#e56a1a;fill-opacity:1;stroke:none"
           d="m 187.22768,608.07127 c -4.63549,0 -8.53204,2.56762 -10.03125,6.16719 -5.53057,1.99301 -12.15524,4.9496 -19,8.63408 -16.17079,8.70462 -25.21875,20.88623 -25.21875,20.88623 0,0 17.17294,-1.90297 33.34375,-10.60757 5.28221,-2.84337 10.02897,-5.76432 13.96875,-8.49703 1.86749,1.39153 4.28393,2.22019 6.9375,2.22019 l 5,0 c 2.75017,0 5.26309,-0.90106 7.15625,-2.38465 3.40089,2.33362 7.23796,4.74708 11.40625,7.12654 16.0052,9.13649 32.28125,11.26541 32.28125,11.26541 0,0 -9.65106,-12.70908 -25.65625,-21.84558 -5.55081,-3.16866 -10.90942,-5.8173 -15.625,-7.83919 -1.76715,-3.04899 -5.3815,-5.12562 -9.5625,-5.12562 l -5,0 z"
           id="path4017"
           inkscape:connector-curvature="0" />
        <path
           style="fill:#e56a1a;fill-opacity:1;stroke:none"
           d="m 187.22768,608.07127 c -4.63549,0 -8.53204,2.56762 -10.03125,6.16719 -5.53057,1.99301 -12.15524,4.9496 -19,8.63408 -16.17079,8.70462 -25.21875,20.88623 -25.21875,20.88623 0,0 17.17294,-1.90297 33.34375,-10.60757 5.28221,-2.84337 10.02897,-5.76432 13.96875,-8.49703 1.86749,1.39153 4.28393,2.22019 6.9375,2.22019 l 5,0 c 2.75017,0 5.26309,-0.90106 7.15625,-2.38465 3.40089,2.33362 7.23796,4.74708 11.40625,7.12654 16.0052,9.13649 32.28125,11.26541 32.28125,11.26541 0,0 -9.65106,-12.70908 -25.65625,-21.84558 -5.55081,-3.16866 -10.90942,-5.8173 -15.625,-7.83919 -1.76715,-3.04899 -5.3815,-5.12562 -9.5625,-5.12562 l -5,0 z"
           id="path4019"
           inkscape:connector-curvature="0" />
        <path
           style="fill:#e56a1a;fill-opacity:1;stroke:none"
           d="m 187.22768,608.07127 c -4.63549,0 -8.53204,2.56762 -10.03125,6.16719 -5.53057,1.99301 -12.15524,4.9496 -19,8.63408 -16.17079,8.70462 -25.21875,20.88623 -25.21875,20.88623 0,0 17.17294,-1.90297 33.34375,-10.60757 5.28221,-2.84337 10.02897,-5.76432 13.96875,-8.49703 1.86749,1.39153 4.28393,2.22019 6.9375,2.22019 l 5,0 c 2.75017,0 5.26309,-0.90106 7.15625,-2.38465 3.40089,2.33362 7.23796,4.74708 11.40625,7.12654 16.0052,9.13649 32.28125,11.26541 32.28125,11.26541 0,0 -9.65106,-12.70908 -25.65625,-21.84558 -5.55081,-3.16866 -10.90942,-5.8173 -15.625,-7.83919 -1.76715,-3.04899 -5.3815,-5.12562 -9.5625,-5.12562 l -5,0 z"
           id="path4021"
           inkscape:connector-curvature="0" />
        <path
           inkscape:connector-curvature="0"
           id="path4024"
           d="m 187.22768,608.07127 c -4.63549,0 -8.53204,2.56762 -10.03125,6.16719 -5.53057,1.99301 -12.15524,4.9496 -19,8.63408 -16.17079,8.70462 -25.21875,20.88623 -25.21875,20.88623 0,0 17.17294,-1.90297 33.34375,-10.60757 5.28221,-2.84337 10.02897,-5.76432 13.96875,-8.49703 1.86749,1.39153 4.28393,2.22019 6.9375,2.22019 l 5,0 c 2.75017,0 5.26309,-0.90106 7.15625,-2.38465 3.40089,2.33362 7.23796,4.74708 11.40625,7.12654 16.0052,9.13649 32.28125,11.26541 32.28125,11.26541 0,0 -9.65106,-12.70908 -25.65625,-21.84558 -5.55081,-3.16866 -10.90942,-5.8173 -15.625,-7.83919 -1.76715,-3.04899 -5.3815,-5.12562 -9.5625,-5.12562 l -5,0 z"
           style="fill:#003380;fill-opacity:1;stroke:none" />
        <path
           inkscape:connector-curvature="0"
           style="fill:#ffe6d5;fill-opacity:1;stroke:none"
           d="m 265.10592,721.6427 c 4.34114,0 8.36456,1.09257 11.76921,2.9375 -3.18203,11.43407 -6.85706,23.0398 -11.00736,34.1875 -0.25595,0.008 -0.50374,0.0312 -0.76185,0.0312 -12.10451,0 -15.91996,-14.74329 -15.91996,-25 0,-10.25672 3.81545,-12.15625 15.91996,-12.15625 z"
           id="path4026" />
        <path
           inkscape:connector-curvature="0"
           style="fill:#d5e5ff;fill-opacity:1;stroke:none"
           d="m 270.17614,603.11145 c 7.2244,11.74219 13.81831,23.67868 13.81831,38.75 0,0 3.97822,36.9419 0,54.40625 -2.49643,10.9593 -5.47395,22.72089 -8.93199,34.5625 -1.39131,0.0566 -2.80272,0.0937 -4.25583,0.0937 -39.04112,-0.28972 -24.64685,-47.49361 -25.21974,-85 0,-17.95 9.64783,-42.14298 24.58925,-42.8125 z"
           id="path4028" />
        <path
           transform="matrix(0.93939394,0,0,0.93939394,17.857143,331.37299)"
           d="m 165,251.59448 c 0,6.50907 -5.43654,11.78572 -12.14285,11.78572 -6.70632,0 -12.14286,-5.27665 -12.14286,-11.78572 0,-6.50907 5.43654,-11.78571 12.14286,-11.78571 6.70631,0 12.14285,5.27664 12.14285,11.78571 z"
           sodipodi:ry="11.785714"
           sodipodi:rx="12.142858"
           sodipodi:cy="251.59448"
           sodipodi:cx="152.85715"
           id="path4030"
           style="fill:#ffccaa;fill-opacity:1;stroke:none"
           sodipodi:type="arc" />
        <path
           sodipodi:type="arc"
           style="fill:#ffccaa;fill-opacity:1;stroke:none"
           id="path4032"
           sodipodi:cx="152.85715"
           sodipodi:cy="251.59448"
           sodipodi:rx="12.142858"
           sodipodi:ry="11.785714"
           d="m 165,251.59448 c 0,6.50907 -5.43654,11.78572 -12.14285,11.78572 -6.70632,0 -12.14286,-5.27665 -12.14286,-11.78572 0,-6.50907 5.43654,-11.78571 12.14286,-11.78571 6.70631,0 12.14285,5.27664 12.14285,11.78571 z"
           transform="matrix(0.93939394,0,0,0.93939394,70,328.51585)" />
        <path
           inkscape:connector-curvature="0"
           id="path4046"
           d="m 187.53363,503.79895 c -21.95452,0 -40.05962,20.09155 -42.79474,46.09375 10.44217,-4.35601 22.52275,-14.66349 29.712,-22.03125 5.1542,-5.28218 11.37813,-11.95029 15.5259,-19.40625 4.14777,7.45596 10.3717,14.12407 15.5259,19.40625 6.01871,6.16815 15.46515,14.39577 24.51043,19.46875 -3.61879,-24.74623 -21.25275,-43.53125 -42.47949,-43.53125 z"
           style="fill:#241c1c;fill-opacity:1;stroke:none" />
        <g
           transform="matrix(1.0520806,0,0,1.1281453,312.67215,-206.49091)"
           id="g4052">
          <path
             style="fill:#165016;fill-opacity:1;stroke:none"
             d="m -113.40035,853.07693 c -5.83006,-11.06714 -8.24097,-21.2585 -5.38494,-22.76302 2.85604,-1.50453 13.70381,-6.90591 19.533873,4.16124 5.830046,11.06713 14.381904,18.0235 1.578622,35.91642 -3.473635,-12.2087 -9.897505,-6.2475 -15.727555,-17.31464 z"
             id="path4054"
             inkscape:connector-curvature="0"
             sodipodi:nodetypes="scscs" />
          <path
             sodipodi:nodetypes="scscs"
             inkscape:connector-curvature="0"
             id="path4056"
             d="m -108.46457,850.21437 c -4.42234,-8.39489 -6.25111,-16.12545 -4.08469,-17.2667 2.16642,-1.14124 10.39489,-5.2384 14.817233,3.15648 4.422329,8.39487 10.90926,13.67157 1.197457,27.24406 -2.634897,-9.26079 -7.50768,-4.73897 -11.93,-13.13384 z"
             style="fill:#2ca02c;fill-opacity:1;stroke:none" />
          <path
             style="fill:#afe9af;fill-opacity:1;stroke:none"
             d="m -103.90056,846.54531 c -3.32482,-6.3115 -4.69975,-12.12353 -3.07097,-12.98156 1.62876,-0.85801 7.815153,-3.93837 11.139977,2.37313 3.324831,6.31149 8.201875,10.27863 0.900285,20.4828 -1.980985,-6.96251 -5.644472,-3.5629 -8.969292,-9.87437 z"
             id="path4058"
             inkscape:connector-curvature="0"
             sodipodi:nodetypes="scscs" />
          <path
             sodipodi:nodetypes="scscs"
             inkscape:connector-curvature="0"
             id="path4060"
             d="m -112.91083,799.54519 c -17.29465,0 -31.31473,3.61809 -31.31473,8.08122 0,4.46314 0.38302,21.2132 17.67767,21.2132 17.29464,0 31.31472,5.97837 44.95178,-21.2132 -17.172589,3.61809 -14.02008,-8.08122 -31.31472,-8.08122 z"
             style="fill:#165016;fill-opacity:1;stroke:none" />
          <path
             style="fill:#165016;fill-opacity:1;stroke:none"
             d="m -129.29952,775.58038 c 0,17.29465 -3.61809,31.31473 -8.08122,31.31473 -4.46314,0 -21.2132,-0.38302 -21.2132,-17.67767 0,-17.29465 -5.97837,-31.31473 21.2132,-44.95179 -3.61809,17.17259 8.08122,14.02008 8.08122,31.31473 z"
             id="path4062"
             inkscape:connector-curvature="0"
             sodipodi:nodetypes="scscs" />
          <path
             style="fill:#2ca02c;fill-opacity:1;stroke:none"
             d="m -113.23187,807.42747 c -13.1187,0 -23.7535,2.74447 -23.7535,6.12994 0,3.38547 0.29054,16.09107 13.40923,16.09107 13.11869,0 23.753491,4.53484 34.097752,-16.09107 -13.026112,2.74447 -10.634802,-6.12994 -23.753482,-6.12994 z"
             id="path4064"
             inkscape:connector-curvature="0"
             sodipodi:nodetypes="scscs" />
          <path
             sodipodi:nodetypes="scscs"
             inkscape:connector-curvature="0"
             id="path4066"
             d="m -132.58251,779.85862 c 0,13.1187 -2.74447,23.7535 -6.12994,23.7535 -3.38547,0 -16.09107,-0.29054 -16.09107,-13.40923 0,-13.1187 -4.53484,-23.7535 16.09107,-34.09776 -2.74447,13.02611 6.12994,10.6348 6.12994,23.75349 z"
             style="fill:#2ca02c;fill-opacity:1;stroke:none" />
          <path
             style="fill:#afe9af;fill-opacity:1;stroke:none"
             d="m -133.8452,784.996 c 0,9.86298 -2.06336,17.85851 -4.60865,17.85851 -2.54528,0 -12.09768,-0.21844 -12.09768,-10.08141 0,-9.86299 -3.40942,-17.85851 12.09768,-25.6356 -2.06336,9.79337 4.60865,7.99553 4.60865,17.8585 z"
             id="path4068"
             inkscape:connector-curvature="0"
             sodipodi:nodetypes="scscs" />
          <path
             sodipodi:nodetypes="scscs"
             inkscape:connector-curvature="0"
             id="path4070"
             d="m -114.77901,815.37468 c -9.86298,0 -17.85851,2.06336 -17.85851,4.60865 0,2.54528 0.21844,12.09768 10.08141,12.09768 9.86299,0 17.8585,3.40942 25.635591,-12.09768 -9.793371,2.06336 -7.995531,-4.60865 -17.858491,-4.60865 z"
             style="fill:#afe9af;fill-opacity:1;stroke:none" />
          <g
             id="g4072">
            <path
               sodipodi:nodetypes="cccccc"
               inkscape:connector-curvature="0"
               id="path4074"
               d="m -122.22846,783.45695 c -25.66736,-15.51449 25.734099,-58.42023 15.7959,-9.17177 11.576822,-19.4622 41.671425,-20.61982 16.46536,6.76403 16.539074,4.3679 39.410256,13.47404 10.601591,21.38026 29.621145,21.22602 -6.711439,34.52141 -25.008511,16.47813 -18.08689,1.00357 -40.71522,-11.81864 -17.85434,-35.45065 z"
               style="fill:#0b2228;stroke:none" />
            <path
               style="fill:#afdde9;stroke:none"
               d="m -128.00081,784.67175 c -26.99666,-14.98285 27.06686,-56.41833 16.61397,-8.85748 12.176374,-18.79528 43.829569,-19.91324 17.318088,6.53224 17.395629,4.21823 41.451303,13.01233 11.150645,20.64762 31.155217,20.49866 -7.059023,33.33846 -26.303693,15.91347 -19.02361,0.96918 -42.82386,-11.41365 -18.77901,-34.23585 z"
               id="path4076"
               inkscape:connector-curvature="0"
               sodipodi:nodetypes="cccccc" />
            <path
               style="fill:#87cdde;stroke:none"
               d="m -119.89684,788.95264 c -18.36063,-11.68625 18.40837,-44.00488 11.29928,-6.90862 8.28125,-14.65984 29.808823,-15.53182 11.778166,5.09499 11.830897,3.29011 28.191342,10.14929 7.583637,16.10462 21.188897,15.98844 -4.800894,26.00316 -17.889343,12.41211 -12.93809,0.75593 -29.12482,-8.90236 -12.77174,-26.7031 z"
               id="path4078"
               inkscape:connector-curvature="0"
               sodipodi:nodetypes="cccccc" />
            <path
               sodipodi:nodetypes="cccccc"
               inkscape:connector-curvature="0"
               id="path4080"
               d="m -123.89404,793.46214 c -16.41836,-10.45002 16.46105,-39.34983 10.10399,-6.17778 7.40522,-13.10906 26.655508,-13.8888 10.53222,4.55601 10.579368,2.94207 25.209127,9.07565 6.781403,14.401 18.947435,14.29711 -4.293033,23.25242 -15.996923,11.0991 -11.56945,0.67596 -26.04386,-7.96063 -11.42069,-23.87833 z"
               style="fill:#2c89a0;stroke:none" />
            <path
               style="fill:#afdde9;fill-opacity:1;stroke:none"
               d="m -125.56466,796.20941 c -9.84749,-6.26778 9.8731,-23.60146 6.06023,-3.70535 4.44155,-7.86262 15.98758,-8.3303 6.31707,2.73263 6.34535,1.76461 15.120069,5.44344 4.06739,8.63751 11.364394,8.5752 -2.5749,13.94646 -9.59472,6.65708 -6.93919,0.40543 -15.62073,-4.77467 -6.84997,-14.32187 z"
               id="path4082"
               inkscape:connector-curvature="0"
               sodipodi:nodetypes="cccccc" />
          </g>
          <path
             sodipodi:nodetypes="scscs"
             inkscape:connector-curvature="0"
             id="path4084"
             d="m -138.47763,838.19094 c 12.48872,-0.70913 22.46449,-3.89668 22.28148,-7.11957 -0.183,-3.2229 -1.14639,-15.30267 -13.63513,-14.59355 -12.48871,0.70914 -22.85795,-3.03307 -31.59055,17.16154 12.25224,-3.31679 10.45547,5.26071 22.9442,4.55158 z"
             style="fill:#165016;fill-opacity:1;stroke:none" />
          <path
             style="fill:#2ca02c;fill-opacity:1;stroke:none"
             d="m -142.1902,835.99683 c 9.47322,-0.5379 17.04024,-2.95579 16.90143,-5.40049 -0.13882,-2.4447 -0.86959,-11.60769 -10.34281,-11.0698 -9.4732,0.53791 -17.3387,-2.3007 -23.96271,13.01772 9.29381,-2.51593 7.9309,3.99049 17.40409,3.45257 z"
             id="path4086"
             inkscape:connector-curvature="0"
             sodipodi:nodetypes="scscs" />
          <path
             sodipodi:nodetypes="scscs"
             inkscape:connector-curvature="0"
             id="path4088"
             d="m -146.43899,833.42365 c 7.12222,-0.40442 12.8113,-2.22224 12.70694,-4.06024 -0.10437,-1.83797 -0.65378,-8.72697 -7.77599,-8.32255 -7.12221,0.40441 -13.03569,-1.72975 -18.01581,9.78705 6.98734,-1.89153 5.96268,3.00015 13.08486,2.59574 z"
             style="fill:#afe9af;fill-opacity:1;stroke:none" />
        </g>
        <g
           inkscape:transform-center-y="19.192898"
           inkscape:transform-center-x="7.4100395"
           id="g4090"
           transform="matrix(-0.29204511,0.84184917,0.64636533,-0.02478471,-368.52113,861.9997)">
          <g
             id="g4092">
            <path
               style="fill:#0b1728;stroke:none"
               d="m -122.22846,784.67175 c -23.54003,-14.98285 23.601242,-56.41833 14.48673,-8.85748 10.617325,-18.79528 38.21767,-19.91324 15.100698,6.53224 15.168306,4.21823 36.143911,13.01233 9.722925,20.64762 27.166128,20.49866 -6.155191,33.33846 -22.935793,15.91347 -16.58784,0.96918 -37.34072,-11.41365 -16.37456,-34.23585 z"
               id="path4094"
               inkscape:connector-curvature="0"
               sodipodi:nodetypes="cccccc" />
            <path
               sodipodi:nodetypes="cccccc"
               inkscape:connector-curvature="0"
               id="path4096"
               d="m -128.00081,784.67175 c -26.99666,-14.98285 27.06686,-56.41833 16.61397,-8.85748 12.176374,-18.79528 43.829569,-19.91324 17.318088,6.53224 17.395629,4.21823 41.451303,13.01233 11.150645,20.64762 31.155217,20.49866 -7.059023,33.33846 -26.303693,15.91347 -19.02361,0.96918 -42.82386,-11.41365 -18.77901,-34.23585 z"
               style="fill:#80b3ff;stroke:none" />
            <path
               sodipodi:nodetypes="cccccc"
               inkscape:connector-curvature="0"
               id="path4098"
               d="m -119.89684,788.95264 c -18.36063,-11.68625 18.40837,-44.00488 11.29928,-6.90862 8.28125,-14.65984 29.808823,-15.53182 11.778166,5.09499 11.830897,3.29011 28.191342,10.14929 7.583637,16.10462 21.188897,15.98844 -4.800894,26.00316 -17.889343,12.41211 -12.93809,0.75593 -29.12482,-8.90236 -12.77174,-26.7031 z"
               style="fill:#5f8dd3;stroke:none" />
            <path
               style="fill:#2c5aa0;stroke:none"
               d="m -123.89404,793.46214 c -16.41836,-10.45002 16.46105,-39.34983 10.10399,-6.17778 7.40522,-13.10906 26.655508,-13.8888 10.53222,4.55601 10.579368,2.94207 25.209127,9.07565 6.781403,14.401 18.947435,14.29711 -4.293033,23.25242 -15.996923,11.0991 -11.56945,0.67596 -26.04386,-7.96063 -11.42069,-23.87833 z"
               id="path4100"
               inkscape:connector-curvature="0"
               sodipodi:nodetypes="cccccc" />
            <path
               sodipodi:nodetypes="cccccc"
               inkscape:connector-curvature="0"
               id="path4102"
               d="m -125.56466,796.20941 c -9.84749,-6.26778 9.8731,-23.60146 6.06023,-3.70535 4.44155,-7.86262 15.98758,-8.3303 6.31707,2.73263 6.34535,1.76461 15.120069,5.44344 4.06739,8.63751 11.364394,8.5752 -2.5749,13.94646 -9.59472,6.65708 -6.93919,0.40543 -15.62073,-4.77467 -6.84997,-14.32187 z"
               style="fill:#afdde9;fill-opacity:1;stroke:none" />
          </g>
        </g>
      </g>
      <path
         sodipodi:nodetypes="cccccscccc"
         inkscape:connector-curvature="0"
         id="path3065"
         d="m 528.13036,598.88682 c -8.66736,-3.97877 -11.15233,-2.07102 -15.2237,1.26373 -0.86854,0.078 -0.86317,1.39943 -0.0689,1.46249 0.87082,-0.2785 1.65137,-0.46786 2.39851,-0.6335 0.37021,1.59785 3.24563,2.57549 4.77532,2.57106 3.19093,-0.0385 4.18159,-1.54802 4.57531,-2.51132 0.11785,-0.28832 0.16261,-0.55282 0.11229,-0.79177 0.3138,-0.0192 0.61445,-0.0327 0.9475,-0.0619 1.11416,0.37212 3.65326,-1.03436 2.48373,-1.29876 z"
         style="fill:#164450;fill-opacity:1;stroke:none" />
      <path
         inkscape:connector-curvature="0"
         id="path3067"
         d="m 496.8192,602.34813 c 0,3.1156 -2.11104,5.6413 -4.71514,5.6413 -2.6041,0 -4.71513,-2.5257 -4.71513,-5.6413 0,-3.1156 2.11103,-5.6413 4.71513,-5.6413 2.6041,0 4.71514,2.5257 4.71514,5.6413 z"
         style="fill:#164450;fill-opacity:1;stroke:none" />
      <path
         inkscape:transform-center-y="3.1885989"
         inkscape:connector-curvature="0"
         id="path3069"
         d="m 500.62478,614.19524 c 0.0122,0.14956 0.034,0.29781 0.0645,0.44662 0.49509,2.41108 3.25842,3.75202 6.16725,2.99615 2.90883,-0.75586 4.86083,-3.32208 4.36575,-5.73316 -0.0305,-0.14881 -0.0688,-0.29281 -0.11612,-0.43322 0.18231,2.27149 -1.70443,4.57235 -4.43146,5.28097 -2.72704,0.70863 -5.32827,-0.42603 -6.05002,-2.55735 z"
         style="fill:#380000;fill-opacity:1;stroke:none" />
      <path
         sodipodi:nodetypes="ccsccacc"
         inkscape:connector-curvature="0"
         id="path3071"
         d="m 495.26151,624.45342 c -0.0243,0.25518 -0.0173,0.50916 0.0357,0.75192 0.75182,3.43697 7.1047,8.89716 16.73613,6.39719 9.63141,-2.49999 18.9036,-12.0159 18.15179,-15.45287 -0.053,-0.24275 -0.15205,-0.47284 -0.27937,-0.68867 -0.32201,3.35746 -12.51015,10.65162 -20.02821,11.96128 -4.89382,0.85251 -12.93875,-0.13034 -14.61608,-2.96885 z"
         style="fill:#d40000;fill-opacity:1;stroke:none" />
      <path
         sodipodi:nodetypes="ccccc"
         inkscape:connector-curvature="0"
         id="rect3073"
         d="m 511.37344,594.65347 c 4.81776,-1.6652 9.63037,-3.34528 14.45135,-5.00117 -0.23089,3.41791 -13.98775,6.65764 -14.78045,5.32193 l 0.3291,-0.32076 z"
         style="fill:#380000;fill-opacity:1;stroke:none" />
      <path
         inkscape:connector-curvature="0"
         id="rect3075"
         d="m 483.89503,589.24035 c 5.08367,0.0268 10.16738,0.0444 15.25102,0.077 -2.62522,4.27275 -8.08729,0.0509 -11.93646,1.77084 -1.10244,0.0516 -4.47273,0.13121 -3.31456,-1.84784 z"
         style="fill:#380000;fill-opacity:1;stroke:none" />
      <path
         style="fill:#164450;fill-opacity:1;stroke:none"
         d="m 485.79626,596.27335 c 5.33271,-0.69741 7.76366,-0.021 11.07435,0.12722 0.33921,0.36341 0.82229,1.43587 0.36981,1.75445 -0.69075,0.48866 -3.08385,-0.11739 -3.8642,-0.14341 -2.58469,-0.0532 -6.81367,0.0308 -9.39633,-0.11159 -0.36765,-0.44611 1.22694,-1.22548 1.7247,-1.59675 0.03,-0.01 0.0597,-0.0262 0.0917,-0.0299 z"
         id="path4031"
         inkscape:connector-curvature="0"
         sodipodi:nodetypes="cccccccc" />
    </g>
    <g
       id="g4384"
       transform="matrix(0.64504224,0,0,0.67736911,-25.295154,145.44633)">
      <g
         id="g4058"
         transform="matrix(0.7501254,0,0,0.7501254,697.38105,230.80855)">
        <path
           style="fill:#abc837;fill-opacity:1;stroke:none"
           d="m 187.08703,470.64312 c -51.19241,0.68196 -60.92143,42.54182 -60.92143,84.93914 0.29944,34.76834 -32.260242,52.79589 -32.260242,86.29157 0,0 -3.978217,36.92969 0,54.39404 8.079382,35.4684 20.973322,79.40452 40.115142,106.90787 -11.26919,6.08496 -17.94279,13.62394 -17.94279,20.71525 0,15.3434 31.17747,26.75171 72.74317,26.75171 41.5657,0 72.74318,-11.40831 72.74318,-26.75171 0,-7.47678 -7.40447,-15.46471 -19.808,-21.70483 19.87831,-27.32533 34.53127,-70.20386 41.849,-105.91829 3.61345,-17.63559 -3.33636,-54.39404 -3.33636,-54.39404 -2.61958,-42.5961 -32.36738,-55.2302 -32.26025,-86.29157 0,-42.39732 -9.73921,-85.62097 -60.92142,-84.93914 z"
           id="path4061"
           inkscape:connector-curvature="0" />
        <path
           style="fill:#445500;fill-opacity:1;stroke:none"
           d="m 186.64043,470.6427 c -51.19241,0.68196 -60.92143,42.54018 -60.92143,84.9375 0.12109,14.05951 -5.12824,25.37939 -11.42769,36.09375 18.7788,14.76208 44.8507,20.59375 73.66265,20.59375 28.59325,0 54.47027,-5.7344 73.21604,-20.25 -7.17601,-11.40809 -13.65823,-21.91903 -13.60815,-36.4375 0,-42.39732 -9.73921,-85.61933 -60.92142,-84.9375 z"
           id="path4063"
           inkscape:connector-curvature="0" />
        <path
           inkscape:connector-curvature="0"
           id="path4065"
           d="m 230.71616,556.71885 c 0,29.23135 -27.21261,49.04202 -43.17348,48.64236 -15.28454,-0.38272 -43.17349,-19.41101 -43.17349,-48.64236 0,-29.23139 19.32942,-52.92809 43.17349,-52.92809 23.84405,0 43.17348,23.6967 43.17348,52.92809 z"
           style="fill:#ffe6d5;fill-opacity:1;stroke:none"
           sodipodi:nodetypes="sssss" />
        <path
           style="fill:#445500;fill-opacity:1;stroke:none"
           d="m 94.45704,698.5802 c 8.10883,35.05196 20.83214,77.68021 39.56346,104.59375 -5.14629,2.77881 -9.31556,5.85834 -12.34716,9.0625 14.43431,11.38376 35.18931,17.96875 64.99336,17.96875 31.56636,0 52.96771,-7.29849 67.46279,-19.78125 -3.21503,-2.9287 -7.38406,-5.73989 -12.37343,-8.25 19.44893,-26.73508 33.88112,-68.32708 41.34986,-103.5625 -7.49572,35.31623 -179.24227,34.37946 -188.64888,-0.0312 z"
           id="path4067"
           inkscape:connector-curvature="0"
           sodipodi:nodetypes="cccsccccc" />
        <path
           style="fill:#ffe6d5;fill-opacity:1;stroke:none"
           d="m 112.79389,721.6427 c -4.34114,0 -8.36456,1.09257 -11.76921,2.9375 3.18203,11.43407 6.85706,23.0398 11.00736,34.1875 0.25595,0.008 0.50375,0.0312 0.76185,0.0312 12.10451,0 15.91996,-14.74329 15.91996,-25 0,-10.25672 -3.81545,-12.15625 -15.91996,-12.15625 z"
           id="path4069"
           inkscape:connector-curvature="0" />
        <path
           style="fill:#f6ffd5;fill-opacity:1;stroke:none"
           d="m 107.72367,603.11145 c -7.2244,11.74219 -13.818312,23.67868 -13.818312,38.75 0,0 -3.978217,36.9419 0,54.40625 2.496429,10.9593 5.473954,22.72089 8.931992,34.5625 1.39131,0.0566 2.80272,0.0937 4.25583,0.0937 39.04112,-0.28972 24.64685,-47.49361 25.21973,-85 0,-17.95 -9.64783,-42.14298 -24.58924,-42.8125 z"
           id="path4071"
           inkscape:connector-curvature="0" />
        <path
           inkscape:connector-curvature="0"
           id="path4073"
           d="m 187.22768,608.07127 c -4.63549,0 -8.53204,2.56762 -10.03125,6.16719 -5.53057,1.99301 -12.15524,4.9496 -19,8.63408 -16.17079,8.70462 -25.21875,20.88623 -25.21875,20.88623 0,0 17.17294,-1.90297 33.34375,-10.60757 5.28221,-2.84337 10.02897,-5.76432 13.96875,-8.49703 1.86749,1.39153 4.28393,2.22019 6.9375,2.22019 l 5,0 c 2.75017,0 5.26309,-0.90106 7.15625,-2.38465 3.40089,2.33362 7.23796,4.74708 11.40625,7.12654 16.0052,9.13649 32.28125,11.26541 32.28125,11.26541 0,0 -9.65106,-12.70908 -25.65625,-21.84558 -5.55081,-3.16866 -10.90942,-5.8173 -15.625,-7.83919 -1.76715,-3.04899 -5.3815,-5.12562 -9.5625,-5.12562 l -5,0 z"
           style="fill:#e56a1a;fill-opacity:1;stroke:none" />
        <path
           inkscape:connector-curvature="0"
           id="path4075"
           d="m 187.22768,608.07127 c -4.63549,0 -8.53204,2.56762 -10.03125,6.16719 -5.53057,1.99301 -12.15524,4.9496 -19,8.63408 -16.17079,8.70462 -25.21875,20.88623 -25.21875,20.88623 0,0 17.17294,-1.90297 33.34375,-10.60757 5.28221,-2.84337 10.02897,-5.76432 13.96875,-8.49703 1.86749,1.39153 4.28393,2.22019 6.9375,2.22019 l 5,0 c 2.75017,0 5.26309,-0.90106 7.15625,-2.38465 3.40089,2.33362 7.23796,4.74708 11.40625,7.12654 16.0052,9.13649 32.28125,11.26541 32.28125,11.26541 0,0 -9.65106,-12.70908 -25.65625,-21.84558 -5.55081,-3.16866 -10.90942,-5.8173 -15.625,-7.83919 -1.76715,-3.04899 -5.3815,-5.12562 -9.5625,-5.12562 l -5,0 z"
           style="fill:#e56a1a;fill-opacity:1;stroke:none" />
        <path
           inkscape:connector-curvature="0"
           id="path4077"
           d="m 187.22768,608.07127 c -4.63549,0 -8.53204,2.56762 -10.03125,6.16719 -5.53057,1.99301 -12.15524,4.9496 -19,8.63408 -16.17079,8.70462 -25.21875,20.88623 -25.21875,20.88623 0,0 17.17294,-1.90297 33.34375,-10.60757 5.28221,-2.84337 10.02897,-5.76432 13.96875,-8.49703 1.86749,1.39153 4.28393,2.22019 6.9375,2.22019 l 5,0 c 2.75017,0 5.26309,-0.90106 7.15625,-2.38465 3.40089,2.33362 7.23796,4.74708 11.40625,7.12654 16.0052,9.13649 32.28125,11.26541 32.28125,11.26541 0,0 -9.65106,-12.70908 -25.65625,-21.84558 -5.55081,-3.16866 -10.90942,-5.8173 -15.625,-7.83919 -1.76715,-3.04899 -5.3815,-5.12562 -9.5625,-5.12562 l -5,0 z"
           style="fill:#e56a1a;fill-opacity:1;stroke:none" />
        <path
           inkscape:connector-curvature="0"
           id="path4079"
           d="m 187.22768,608.07127 c -4.63549,0 -8.53204,2.56762 -10.03125,6.16719 -5.53057,1.99301 -12.15524,4.9496 -19,8.63408 -16.17079,8.70462 -25.21875,20.88623 -25.21875,20.88623 0,0 17.17294,-1.90297 33.34375,-10.60757 5.28221,-2.84337 10.02897,-5.76432 13.96875,-8.49703 1.86749,1.39153 4.28393,2.22019 6.9375,2.22019 l 5,0 c 2.75017,0 5.26309,-0.90106 7.15625,-2.38465 3.40089,2.33362 7.23796,4.74708 11.40625,7.12654 16.0052,9.13649 32.28125,11.26541 32.28125,11.26541 0,0 -9.65106,-12.70908 -25.65625,-21.84558 -5.55081,-3.16866 -10.90942,-5.8173 -15.625,-7.83919 -1.76715,-3.04899 -5.3815,-5.12562 -9.5625,-5.12562 l -5,0 z"
           style="fill:#e56a1a;fill-opacity:1;stroke:none" />
        <path
           style="fill:#445500;fill-opacity:1;stroke:none"
           d="m 187.22768,608.07127 c -4.63549,0 -8.53204,2.56762 -10.03125,6.16719 -5.53057,1.99301 -12.15524,4.9496 -19,8.63408 -16.17079,8.70462 -25.21875,20.88623 -25.21875,20.88623 0,0 17.17294,-1.90297 33.34375,-10.60757 5.28221,-2.84337 10.02897,-5.76432 13.96875,-8.49703 1.86749,1.39153 4.28393,2.22019 6.9375,2.22019 l 5,0 c 2.75017,0 5.26309,-0.90106 7.15625,-2.38465 3.40089,2.33362 7.23796,4.74708 11.40625,7.12654 16.0052,9.13649 32.28125,11.26541 32.28125,11.26541 0,0 -9.65106,-12.70908 -25.65625,-21.84558 -5.55081,-3.16866 -10.90942,-5.8173 -15.625,-7.83919 -1.76715,-3.04899 -5.3815,-5.12562 -9.5625,-5.12562 l -5,0 z"
           id="path4081"
           inkscape:connector-curvature="0" />
        <path
           id="path4083"
           d="m 265.10592,721.6427 c 4.34114,0 8.36456,1.09257 11.76921,2.9375 -3.18203,11.43407 -6.85706,23.0398 -11.00736,34.1875 -0.25595,0.008 -0.50374,0.0312 -0.76185,0.0312 -12.10451,0 -15.91996,-14.74329 -15.91996,-25 0,-10.25672 3.81545,-12.15625 15.91996,-12.15625 z"
           style="fill:#ffe6d5;fill-opacity:1;stroke:none"
           inkscape:connector-curvature="0" />
        <path
           id="path4085"
           d="m 270.17614,603.11145 c 7.2244,11.74219 13.81831,23.67868 13.81831,38.75 0,0 3.97822,36.9419 0,54.40625 -2.49643,10.9593 -5.47395,22.72089 -8.93199,34.5625 -1.39131,0.0566 -2.80272,0.0937 -4.25583,0.0937 -39.04112,-0.28972 -24.64685,-47.49361 -25.21974,-85 0,-17.95 9.64783,-42.14298 24.58925,-42.8125 z"
           style="fill:#f6ffd5;fill-opacity:1;stroke:none"
           inkscape:connector-curvature="0" />
        <path
           sodipodi:type="arc"
           style="fill:#ffccaa;fill-opacity:1;stroke:none"
           id="path4087"
           sodipodi:cx="152.85715"
           sodipodi:cy="251.59448"
           sodipodi:rx="12.142858"
           sodipodi:ry="11.785714"
           d="m 165,251.59448 c 0,6.50907 -5.43654,11.78572 -12.14285,11.78572 -6.70632,0 -12.14286,-5.27665 -12.14286,-11.78572 0,-6.50907 5.43654,-11.78571 12.14286,-11.78571 6.70631,0 12.14285,5.27664 12.14285,11.78571 z"
           transform="matrix(0.93939394,0,0,0.93939394,17.857143,331.37299)" />
        <path
           transform="matrix(0.93939394,0,0,0.93939394,70,328.51585)"
           d="m 165,251.59448 c 0,6.50907 -5.43654,11.78572 -12.14285,11.78572 -6.70632,0 -12.14286,-5.27665 -12.14286,-11.78572 0,-6.50907 5.43654,-11.78571 12.14286,-11.78571 6.70631,0 12.14285,5.27664 12.14285,11.78571 z"
           sodipodi:ry="11.785714"
           sodipodi:rx="12.142858"
           sodipodi:cy="251.59448"
           sodipodi:cx="152.85715"
           id="path4089"
           style="fill:#ffccaa;fill-opacity:1;stroke:none"
           sodipodi:type="arc" />
        <path
           style="fill:#6c5d53;fill-opacity:1;stroke:none"
           d="m 187.53363,503.79895 c -21.95452,0 -40.05962,20.09155 -42.79474,46.09375 10.44217,-4.35601 22.52275,-14.66349 29.712,-22.03125 5.1542,-5.28218 11.37813,-11.95029 15.5259,-19.40625 4.14777,7.45596 10.3717,14.12407 15.5259,19.40625 6.01871,6.16815 15.46515,14.39577 24.51043,19.46875 -3.61879,-24.74623 -21.25275,-43.53125 -42.47949,-43.53125 z"
           id="path4091"
           inkscape:connector-curvature="0" />
        <g
           id="g4093"
           transform="matrix(1.0520806,0,0,1.1281453,312.67215,-206.49091)">
          <path
             sodipodi:nodetypes="scscs"
             inkscape:connector-curvature="0"
             id="path4095"
             d="m -113.40035,853.07693 c -5.83006,-11.06714 -8.24097,-21.2585 -5.38494,-22.76302 2.85604,-1.50453 13.70381,-6.90591 19.533873,4.16124 5.830046,11.06713 14.381904,18.0235 1.578622,35.91642 -3.473635,-12.2087 -9.897505,-6.2475 -15.727555,-17.31464 z"
             style="fill:#447821;fill-opacity:1;stroke:none" />
          <path
             style="fill:#599f0b;fill-opacity:1;stroke:none"
             d="m -108.46457,850.21437 c -4.42234,-8.39489 -6.25111,-16.12545 -4.08469,-17.2667 2.16642,-1.14124 10.39489,-5.2384 14.817233,3.15648 4.422329,8.39487 10.90926,13.67157 1.197457,27.24406 -2.634897,-9.26079 -7.50768,-4.73897 -11.93,-13.13384 z"
             id="path4097"
             inkscape:connector-curvature="0"
             sodipodi:nodetypes="scscs" />
          <path
             sodipodi:nodetypes="scscs"
             inkscape:connector-curvature="0"
             id="path4099"
             d="m -103.90056,846.54531 c -3.32482,-6.3115 -4.69975,-12.12353 -3.07097,-12.98156 1.62876,-0.85801 7.815153,-3.93837 11.139977,2.37313 3.324831,6.31149 8.201875,10.27863 0.900285,20.4828 -1.980985,-6.96251 -5.644472,-3.5629 -8.969292,-9.87437 z"
             style="fill:#cdde87;fill-opacity:1;stroke:none" />
          <path
             style="fill:#447821;fill-opacity:1;stroke:none"
             d="m -112.91083,799.54519 c -17.29465,0 -31.31473,3.61809 -31.31473,8.08122 0,4.46314 0.38302,21.2132 17.67767,21.2132 17.29464,0 31.31472,5.97837 44.95178,-21.2132 -17.172589,3.61809 -14.02008,-8.08122 -31.31472,-8.08122 z"
             id="path4101"
             inkscape:connector-curvature="0"
             sodipodi:nodetypes="scscs" />
          <path
             sodipodi:nodetypes="scscs"
             inkscape:connector-curvature="0"
             id="path4103"
             d="m -129.29952,775.58038 c 0,17.29465 -3.61809,31.31473 -8.08122,31.31473 -4.46314,0 -21.2132,-0.38302 -21.2132,-17.67767 0,-17.29465 -5.97837,-31.31473 21.2132,-44.95179 -3.61809,17.17259 8.08122,14.02008 8.08122,31.31473 z"
             style="fill:#447821;fill-opacity:1;stroke:none" />
          <path
             sodipodi:nodetypes="scscs"
             inkscape:connector-curvature="0"
             id="path4105"
             d="m -113.23187,807.42747 c -13.1187,0 -23.7535,2.74447 -23.7535,6.12994 0,3.38547 0.29054,16.09107 13.40923,16.09107 13.11869,0 23.753491,4.53484 34.097752,-16.09107 -13.026112,2.74447 -10.634802,-6.12994 -23.753482,-6.12994 z"
             style="fill:#2ca02c;fill-opacity:1;stroke:none" />
          <path
             style="fill:#599f0b;fill-opacity:1;stroke:none"
             d="m -132.58251,779.85862 c 0,13.1187 -2.74447,23.7535 -6.12994,23.7535 -3.38547,0 -16.09107,-0.29054 -16.09107,-13.40923 0,-13.1187 -4.53484,-23.7535 16.09107,-34.09776 -2.74447,13.02611 6.12994,10.6348 6.12994,23.75349 z"
             id="path4107"
             inkscape:connector-curvature="0"
             sodipodi:nodetypes="scscs" />
          <path
             sodipodi:nodetypes="scscs"
             inkscape:connector-curvature="0"
             id="path4109"
             d="m -133.8452,784.996 c 0,9.86298 -2.06336,17.85851 -4.60865,17.85851 -2.54528,0 -12.09768,-0.21844 -12.09768,-10.08141 0,-9.86299 -3.40942,-17.85851 12.09768,-25.6356 -2.06336,9.79337 4.60865,7.99553 4.60865,17.8585 z"
             style="fill:#cdde87;fill-opacity:1;stroke:none" />
          <path
             style="fill:#cdde87;fill-opacity:1;stroke:none"
             d="m -114.77901,815.37468 c -9.86298,0 -17.85851,2.06336 -17.85851,4.60865 0,2.54528 0.21844,12.09768 10.08141,12.09768 9.86299,0 17.8585,3.40942 25.635591,-12.09768 -9.793371,2.06336 -7.995531,-4.60865 -17.858491,-4.60865 z"
             id="path4111"
             inkscape:connector-curvature="0"
             sodipodi:nodetypes="scscs" />
          <g
             id="g4113">
            <path
               style="fill:#ffcc00;stroke:none"
               d="m -122.22846,783.45695 c -25.66736,-15.51449 25.734099,-58.42023 15.7959,-9.17177 11.576822,-19.4622 41.671425,-20.61982 16.46536,6.76403 16.539074,4.3679 39.410256,13.47404 10.601591,21.38026 29.621145,21.22602 -6.711439,34.52141 -25.008511,16.47813 -18.08689,1.00357 -40.71522,-11.81864 -17.85434,-35.45065 z"
               id="path4115"
               inkscape:connector-curvature="0"
               sodipodi:nodetypes="cccccc" />
            <path
               sodipodi:nodetypes="cccccc"
               inkscape:connector-curvature="0"
               id="path4117"
               d="m -128.00081,784.67175 c -26.99666,-14.98285 27.06686,-56.41833 16.61397,-8.85748 12.176374,-18.79528 43.829569,-19.91324 17.318088,6.53224 17.395629,4.21823 41.451303,13.01233 11.150645,20.64762 31.155217,20.49866 -7.059023,33.33846 -26.303693,15.91347 -19.02361,0.96918 -42.82386,-11.41365 -18.77901,-34.23585 z"
               style="fill:#ffe680;stroke:none" />
            <path
               sodipodi:nodetypes="cccccc"
               inkscape:connector-curvature="0"
               id="path4119"
               d="m -119.89684,788.95264 c -18.36063,-11.68625 18.40837,-44.00488 11.29928,-6.90862 8.28125,-14.65984 29.808823,-15.53182 11.778166,5.09499 11.830897,3.29011 28.191342,10.14929 7.583637,16.10462 21.188897,15.98844 -4.800894,26.00316 -17.889343,12.41211 -12.93809,0.75593 -29.12482,-8.90236 -12.77174,-26.7031 z"
               style="fill:#ffff00;stroke:none" />
            <path
               style="fill:#ffff82;fill-opacity:1;stroke:none"
               d="m -123.89404,793.46214 c -16.41836,-10.45002 16.46105,-39.34983 10.10399,-6.17778 7.40522,-13.10906 26.655508,-13.8888 10.53222,4.55601 10.579368,2.94207 25.209127,9.07565 6.781403,14.401 18.947435,14.29711 -4.293033,23.25242 -15.996923,11.0991 -11.56945,0.67596 -26.04386,-7.96063 -11.42069,-23.87833 z"
               id="path4121"
               inkscape:connector-curvature="0"
               sodipodi:nodetypes="cccccc" />
            <path
               sodipodi:nodetypes="cccccc"
               inkscape:connector-curvature="0"
               id="path4123"
               d="m -125.56466,796.20941 c -9.84749,-6.26778 9.8731,-23.60146 6.06023,-3.70535 4.44155,-7.86262 15.98758,-8.3303 6.31707,2.73263 6.34535,1.76461 15.120069,5.44344 4.06739,8.63751 11.364394,8.5752 -2.5749,13.94646 -9.59472,6.65708 -6.93919,0.40543 -15.62073,-4.77467 -6.84997,-14.32187 z"
               style="fill:#fdffc6;fill-opacity:1;stroke:none" />
          </g>
          <path
             style="fill:#447821;fill-opacity:1;stroke:none"
             d="m -138.47763,838.19094 c 12.48872,-0.70913 22.46449,-3.89668 22.28148,-7.11957 -0.183,-3.2229 -1.14639,-15.30267 -13.63513,-14.59355 -12.48871,0.70914 -22.85795,-3.03307 -31.59055,17.16154 12.25224,-3.31679 10.45547,5.26071 22.9442,4.55158 z"
             id="path4125"
             inkscape:connector-curvature="0"
             sodipodi:nodetypes="scscs" />
          <path
             sodipodi:nodetypes="scscs"
             inkscape:connector-curvature="0"
             id="path4127"
             d="m -142.1902,835.99683 c 9.47322,-0.5379 17.04024,-2.95579 16.90143,-5.40049 -0.13882,-2.4447 -0.86959,-11.60769 -10.34281,-11.0698 -9.4732,0.53791 -17.3387,-2.3007 -23.96271,13.01772 9.29381,-2.51593 7.9309,3.99049 17.40409,3.45257 z"
             style="fill:#599f0b;fill-opacity:1;stroke:none" />
          <path
             style="fill:#cdde87;fill-opacity:1;stroke:none"
             d="m -146.43899,833.42365 c 7.12222,-0.40442 12.8113,-2.22224 12.70694,-4.06024 -0.10437,-1.83797 -0.65378,-8.72697 -7.77599,-8.32255 -7.12221,0.40441 -13.03569,-1.72975 -18.01581,9.78705 6.98734,-1.89153 5.96268,3.00015 13.08486,2.59574 z"
             id="path4129"
             inkscape:connector-curvature="0"
             sodipodi:nodetypes="scscs" />
        </g>
        <g
           transform="matrix(-0.29204511,0.84184917,0.64636533,-0.02478471,-368.52113,861.9997)"
           id="g4131"
           inkscape:transform-center-x="7.4100395"
           inkscape:transform-center-y="19.192898">
          <g
             id="g4133">
            <path
               sodipodi:nodetypes="cccccc"
               inkscape:connector-curvature="0"
               id="path4135"
               d="m -121.55361,782.54712 c -25.39227,-16.16177 25.458298,-60.85759 15.62661,-9.55443 11.45275,-20.27418 41.22482,-21.48011 16.288896,7.04623 16.361819,4.55014 38.987884,14.0362 10.48797,22.27227 29.303687,22.11159 -6.63951,35.96169 -24.740486,17.16562 -17.89305,1.04544 -40.27887,-12.31173 -17.66299,-36.92969 z"
               style="fill:#ffcc00;stroke:none" />
            <path
               style="fill:#ffff00;stroke:none"
               d="m -128.00081,784.67175 c -26.99666,-14.98285 27.06686,-56.41833 16.61397,-8.85748 12.176374,-18.79528 43.829569,-19.91324 17.318088,6.53224 17.395629,4.21823 41.451303,13.01233 11.150645,20.64762 31.155217,20.49866 -7.059023,33.33846 -26.303693,15.91347 -19.02361,0.96918 -42.82386,-11.41365 -18.77901,-34.23585 z"
               id="path4137"
               inkscape:connector-curvature="0"
               sodipodi:nodetypes="cccccc" />
            <path
               style="fill:#ffff00;stroke:none"
               d="m -119.89684,788.95264 c -18.36063,-11.68625 18.40837,-44.00488 11.29928,-6.90862 8.28125,-14.65984 29.808823,-15.53182 11.778166,5.09499 11.830897,3.29011 28.191342,10.14929 7.583637,16.10462 21.188897,15.98844 -4.800894,26.00316 -17.889343,12.41211 -12.93809,0.75593 -29.12482,-8.90236 -12.77174,-26.7031 z"
               id="path4139"
               inkscape:connector-curvature="0"
               sodipodi:nodetypes="cccccc" />
            <path
               sodipodi:nodetypes="cccccc"
               inkscape:connector-curvature="0"
               id="path4141"
               d="m -123.89404,793.46214 c -16.41836,-10.45002 16.46105,-39.34983 10.10399,-6.17778 7.40522,-13.10906 26.655508,-13.8888 10.53222,4.55601 10.579368,2.94207 25.209127,9.07565 6.781403,14.401 18.947435,14.29711 -4.293033,23.25242 -15.996923,11.0991 -11.56945,0.67596 -26.04386,-7.96063 -11.42069,-23.87833 z"
               style="fill:#ffff82;fill-opacity:1;stroke:none" />
            <path
               style="fill:#fdffc6;fill-opacity:1;stroke:none"
               d="m -125.56466,796.20941 c -9.84749,-6.26778 9.8731,-23.60146 6.06023,-3.70535 4.44155,-7.86262 15.98758,-8.3303 6.31707,2.73263 6.34535,1.76461 15.120069,5.44344 4.06739,8.63751 11.364394,8.5752 -2.5749,13.94646 -9.59472,6.65708 -6.93919,0.40543 -15.62073,-4.77467 -6.84997,-14.32187 z"
               id="path4143"
               inkscape:connector-curvature="0"
               sodipodi:nodetypes="cccccc" />
          </g>
        </g>
      </g>
      <path
         inkscape:connector-curvature="0"
         id="path3043"
         d="m 853.80021,638.80037 c -1.67885,0 -3.03579,1.89787 -3.03579,4.2369 0,2.33904 1.35694,4.23697 3.03579,4.23697 1.67887,0 3.0517,-1.89793 3.0517,-4.23697 0,-2.33903 -1.37283,-4.2369 -3.0517,-4.2369 z"
         style="fill:#445016;fill-opacity:1;stroke:none" />
      <path
         transform="matrix(0.31885831,0,0,0.44453181,793.01302,586.86848)"
         d="m 99.003054,126.35941 c 0,5.2618 -4.265528,9.52733 -9.527323,9.52733 -5.261795,0 -9.527323,-4.26553 -9.527323,-9.52733 0,-5.26179 4.265528,-9.52732 9.527323,-9.52732 5.261795,0 9.527323,4.26553 9.527323,9.52732 z"
         sodipodi:ry="9.5273228"
         sodipodi:rx="9.5273228"
         sodipodi:cy="126.35941"
         sodipodi:cx="89.475731"
         id="path3045"
         style="fill:#445016;fill-opacity:1;stroke:none"
         sodipodi:type="arc" />
      <path
         inkscape:connector-curvature="0"
         id="path3047"
         d="m 832.75482,651.65297 c -0.0182,0.17729 -0.0267,0.35597 -0.0267,0.53797 0,2.94849 2.45121,5.33886 5.46997,5.33886 3.01875,0 5.46106,-2.39037 5.46106,-5.33886 0,-0.182 -0.008,-0.36068 -0.0267,-0.53797 -0.27991,2.69207 -2.60425,4.79407 -5.43433,4.79407 -2.83009,0 -5.16333,-2.102 -5.44324,-4.79407 z"
         style="fill:#380000;fill-opacity:1;stroke:none" />
      <path
         inkscape:connector-curvature="0"
         id="path3049"
         d="m 821.09781,671.4167 c -0.0748,-0.43064 -0.12022,-0.87327 -0.12022,-1.31724 0,-6.28547 7.71045,-11.37499 17.21602,-11.37499 9.50557,0 17.21603,5.08952 17.21603,11.37499 0,0.44397 -0.0454,0.8866 -0.12023,1.31724 -0.98661,-5.66549 -8.2634,-10.05774 -17.0958,-10.05774 -8.8324,0 -16.10919,4.39225 -17.0958,10.05774 z"
         style="fill:#c83737;fill-opacity:1;stroke:none" />
      <path
         sodipodi:nodetypes="cccc"
         inkscape:connector-curvature="0"
         id="rect3053"
         d="m 820.90824,636.62637 c 3.53284,-2.12049 7.05911,-4.25189 10.59605,-6.36556 1.00777,2.51026 -10.22789,7.36376 -10.75354,7.19585 -0.1555,-0.26401 -0.13667,-0.665 0.15749,-0.83029 z"
         style="fill:#380000;fill-opacity:1;stroke:none" />
      <path
         style="fill:#380000;fill-opacity:1;stroke:none"
         d="m 854.2716,636.62637 c -3.53283,-2.12049 -7.05911,-4.25189 -10.59605,-6.36556 -1.00777,2.51026 10.22789,7.36376 10.75354,7.19585 0.1555,-0.26401 0.13667,-0.665 -0.15749,-0.83029 z"
         id="path3129"
         inkscape:connector-curvature="0"
         sodipodi:nodetypes="cccc" />
    </g>
  </g>
</svg>
