<?xml version="1.0" encoding="utf-8"?>
<!-- Generator: Adobe Illustrator 15.0.2, SVG Export Plug-In . SVG Version: 6.00 Build 0)  -->
<!DOCTYPE svg PUBLIC "-//W3C//DTD SVG 1.1//EN" "http://www.w3.org/Graphics/SVG/1.1/DTD/svg11.dtd">
<svg version="1.1" id="Layer_1" xmlns="http://www.w3.org/2000/svg" xmlns:xlink="http://www.w3.org/1999/xlink" x="0px" y="0px"
	 width="134px" height="254px" viewBox="0 0 134 254" enable-background="new 0 0 134 254" xml:space="preserve">
<path id="path2995_1_" inkscape:connector-curvature="0" fill="#ECC117" d="M66.384,4.445c-33.021,0.44-39.297,27.441-39.297,54.79
	c0.192,22.427-20.81,34.056-20.81,55.662c0,0-2.566,23.821,0,35.086c5.212,22.879,13.528,51.22,25.876,68.961
	c-7.27,3.925-11.574,8.787-11.574,13.361c0,9.898,20.111,17.256,46.923,17.256s46.922-7.357,46.922-17.256
	c0-4.822-4.775-9.975-12.776-14c12.822-17.626,22.274-45.285,26.994-68.322c2.332-11.375-2.152-35.086-2.152-35.086
	c-1.693-27.546-20.877-35.705-20.808-55.662C105.681,31.886,99.399,4.005,66.384,4.445L66.384,4.445z"/>
</svg>
