<?xml version="1.0" encoding="utf-8"?>
<!-- Generator: Adobe Illustrator 15.0.2, SVG Export Plug-In . SVG Version: 6.00 Build 0)  -->
<!DOCTYPE svg PUBLIC "-//W3C//DTD SVG 1.1//EN" "http://www.w3.org/Graphics/SVG/1.1/DTD/svg11.dtd">
<svg version="1.1" id="Layer_1" xmlns="http://www.w3.org/2000/svg" xmlns:xlink="http://www.w3.org/1999/xlink" x="0px" y="0px"
	 width="134px" height="254px" viewBox="0 0 134 254" enable-background="new 0 0 134 254" xml:space="preserve">
<path id="path3824" inkscape:connector-curvature="0" fill="#E56A19" d="M66.475,93.092c-2.99,0-5.504,1.656-6.471,3.978
	c-3.567,1.286-7.841,3.193-12.256,5.569c-10.431,5.614-16.268,13.473-16.268,13.473s11.077-1.228,21.508-6.843
	c3.408-1.833,6.47-3.718,9.011-5.48c1.205,0.897,2.764,1.432,4.476,1.432H69.7c1.774,0,3.396-0.581,4.616-1.538
	c2.193,1.505,4.669,3.062,7.357,4.596c10.324,5.895,20.823,7.268,20.823,7.268s-6.226-8.198-16.55-14.092
	c-3.58-2.043-7.037-3.752-10.079-5.056c-1.14-1.967-3.471-3.307-6.168-3.307H66.475z"/>
</svg>
